SplineFontDB: 3.0
FontName: Calliope
FullName: Calliope
FamilyName: Calliope
Weight: Medium
Copyright: 
Version: 002.000
ItalicAngle: 0
UnderlinePosition: -156
UnderlineWidth: 20
Ascent: 800
Descent: 200
LayerCount: 2
Layer: 0 0 "Back"  1
Layer: 1 0 "Fore"  0
NeedsXUIDChange: 1
XUID: [1021 783 1027364731 3909877]
UniqueID: 4242661
BaseHoriz: 1 'romn'
BaseScript: 'DFLT' 0  0 { 'dflt' -220 1065}
BaseScript: 'latn' 0  0
BaseScript: 'musi' 0  0
FSType: 0
OS2Version: 2
OS2_WeightWidthSlopeOnly: 0
OS2_UseTypoMetrics: 1
CreationTime: 1140979847
ModificationTime: 1260481489
PfmFamily: 17
TTFWeight: 500
TTFWidth: 5
LineGap: 90
VLineGap: 0
Panose: 2 0 6 3 0 0 0 0 0 0
OS2TypoAscent: 255
OS2TypoAOffset: 1
OS2TypoDescent: -9
OS2TypoDOffset: 1
OS2TypoLinegap: 90
OS2WinAscent: 0
OS2WinAOffset: 1
OS2WinDescent: 0
OS2WinDOffset: 1
HheadAscent: 0
HheadAOffset: 0
HheadDescent: 0
HheadDOffset: 0
OS2SubXSize: 650
OS2SubYSize: 700
OS2SubXOff: 0
OS2SubYOff: 480
OS2SupXSize: 650
OS2SupYSize: 700
OS2SupXOff: 0
OS2SupYOff: 0
OS2StrikeYSize: 49
OS2StrikeYPos: 258
OS2Vendor: 'PfEd'
OS2CodePages: 00000001.00000000
OS2UnicodeRanges: 00000003.00000000.00000000.00000000
DEI: 91125
LangName: 1033 "" "" "" "FontForge 1.0 : Calliope : 26-2-2006" 
Encoding: UnicodeBmp
UnicodeInterp: none
NameList: Adobe Glyph List
DisplaySize: -72
AntiAlias: 1
FitToEm: 1
ExtremaBound: 10
WinInfo: 207 9 6
BeginPrivate: 7
BlueValues 31 [-10 0 500 505 508 509 512 513]
BlueScale 8 0.045455
BlueShift 1 6
StdHW 4 [18]
StdVW 4 [43]
StemSnapH 7 [18 29]
StemSnapV 7 [22 43]
EndPrivate
TeXData: 1 0 0 346030 173015 115343 207618 1048576 115343 783286 444596 497025 792723 393216 433062 380633 303038 157286 324010 404750 52429 2506097 1059062 262144
BeginChars: 65536 130

StartChar: exclam
Encoding: 33 33 1
Width: 305
Flags: W
LayerCount: 2
Fore
SplineSet
0 875 m 1
 40 875 l 1
 40 709 l 1
 261 709 l 1
 261 875 l 1
 294 875 l 1
 294 125 l 1
 261 125 l 1
 261 292 l 1
 38 292 l 1
 33 118 l 1
 0 118 l 1
 0 875 l 1
40 458 m 1
 261 458 l 1
 261 542 l 1
 40 542 l 1
 40 458 l 1
40 608 m 1
 263 608 l 1
 263 643 l 1
 40 643 l 1
 40 608 l 1
40 357 m 1
 261 357 l 1
 261 392 l 1
 40 392 l 1
 40 357 l 1
EndSplineSet
Validated: 1
EndChar

StartChar: quotedbl
Encoding: 34 34 2
Width: 266
Flags: W
HStem: -66.4538 191.454<18.7408 208.288>
VStem: 0 253<-66.4538 104.743> 232.131 20.8686<-161.864 -102.683>
LayerCount: 2
Fore
SplineSet
195 -80 m 0xa0
 170.58860115 -70.1415504643 138.023020875 -66.4538328174 104.545384048 -66.4538328174 c 0
 66.7105522333 -66.4538328174 27.7108012383 -71.1639497568 -2 -77 c 1
 0 67 l 2
 1 119 72 125 125 125 c 0
 181 125 253 122 253 67 c 2xc0
 253 -162 l 1
 242 -159 232 -162 232 -162 c 1
 232.082842712 -159.100505063 232.13137085 -156.214735957 232.13137085 -153.352357903 c 0
 232.13137085 -121.662776362 226.183347776 -92.8402020254 195 -80 c 0xa0
EndSplineSet
Validated: 1
EndChar

StartChar: numbersign
Encoding: 35 35 3
Width: 137
Flags: W
LayerCount: 2
Fore
SplineSet
-89 -101 m 0
 -127 -100 -152 -90 -169 -54 c 1
 -169 100 l 1
 -156 66 -126 39 -90 42 c 0
 -41 46 -12 129 -19 153 c 1
 -8 154 -1 142 2 159 c 1
 -4 -50 l 1
 -17 -80 -56 -102 -89 -101 c 0
EndSplineSet
Validated: 33
EndChar

StartChar: dollar
Encoding: 36 36 4
Width: 562
Flags: W
LayerCount: 2
Fore
SplineSet
466 522 m 1
 466 4 l 1
 414 4 l 1
 414 520 l 1
 298 628 l 1
 419 749 l 1
 296 872 l 1
 432 1008 l 1
 568 872 l 1
 447 751 l 1
 570 628 l 1
 466 522 l 1
277 4 m 1
 221 4 l 1
 221 544 l 1
 210 583 l 1
 70 583 l 1
 0 504 l 1
 0 754 l 1
 70 666 l 1
 210 666 l 1
 277 752 l 1
 277 4 l 1
70 916 m 1
 210 916 l 1
 277 1002 l 1
 277 754 l 1
 210 833 l 1
 70 833 l 1
 -2 754 l 1
 0 1004 l 1
 70 916 l 1
500 849 m 1
 409 940 l 1
 364 895 l 1
 455 804 l 1
 500 849 l 1
502 605 m 1
 411 696 l 1
 366 651 l 1
 457 560 l 1
 502 605 l 1
EndSplineSet
Validated: 1
EndChar

StartChar: percent
Encoding: 37 37 5
Width: 137
Flags: W
LayerCount: 2
Fore
SplineSet
-164 -88 m 1
 -164 4 l 2
 -164 42 -113 75 -75 77 c 1
 -44 77 -19 81 0 59 c 1
 0 -207 l 1
 -5 -197 -14 -238 -25 -209 c 1
 -20 -156 -36 -59 -71 -55 c 0
 -104 -51 -156 -54 -164 -88 c 1
EndSplineSet
Validated: 33
EndChar

StartChar: ampersand
Encoding: 38 38 6
Width: 515
Flags: W
TeX: 910 191
HStem: -11.0494 66.0266<234.307 381.348> 308 91.9744<286.372 391.252> 452.534 55.5059<231 414.526> 844.508 65.6005<361.63 434.441>
VStem: 14.9641 117.822<150.933 355.68> 205.494 53.3853<180.161 279.427> 427.364 94.796<105.911 268.727> 449 65<475 830.328>
LayerCount: 2
Fore
SplineSet
310 452 m 0xfd
 252 446 204 425 170 383 c 0
 144.923676546 352.351160223 132.78607733 293.237127121 132.78607733 252.924277018 c 0
 132.78607733 249.831762903 132.857505441 246.849891179 133 244 c 0
 136 190 152 140 179 116 c 0
 221 80 255 56 302 55 c 0
 303.116144746 54.9847103459 304.220600815 54.9771352181 305.313514756 54.9771352181 c 0
 375.701220125 54.9771352181 398.214055157 86.3975310053 412 112 c 0
 423.024490204 132.946531388 427.364314274 157.539244304 427.364314274 181.758409494 c 0
 427.364314274 201.476269493 424.487754898 220.946531388 420 238 c 0
 410 277 377 308 339 308 c 0
 296 308 271 276 262 241 c 0
 259.843894904 232.57158917 258.878801913 224.335277066 258.878801913 216.298594326 c 0
 258.878801913 183.333792353 275.116200638 153.727694266 292 128 c 1
 260 136 209 184 206 236 c 0
 205.684571088 240.731433673 205.493511425 245.935470487 205.493511425 251.482652576 c 0
 205.493511425 281.10778277 210.942861394 320.520005951 232 350 c 0
 254 381 291 396 318 399 c 0
 323.441750422 399.653010051 329.215162497 399.974358448 335.237730172 399.974358448 c 0
 356.883500844 399.974358448 381.747770523 395.823299831 406 388 c 0
 440 378 469 354 485 330 c 1
 499 307 521 268 522 223 c 0
 522.107705357 219.930397337 522.160308605 216.860794674 522.160308605 213.795877373 c 0xfe
 522.160308605 159.947798003 505.922946434 107.545977686 487 82 c 0
 451 33 394 -10 311 -11 c 0
 308.918930737 -11.0330328454 306.847409202 -11.0494253655 304.785502977 -11.0494253655 c 0
 182.007650676 -11.0494253655 93.3228266684 47.0735674769 53 111 c 0
 38 134 16 189 15 248 c 0
 14.9760539492 249.484655149 14.9641495787 250.972177366 14.9641495787 252.462099795 c 0
 14.9641495787 313.19214182 34.7423275747 377.90994993 65 415 c 0
 125 488 233 506 309 508 c 0
 310.201952326 508.026710052 311.408185213 508.039864993 312.61839377 508.039864993 c 0
 356.717291003 508.039864993 406.095112119 490.572639173 446 475 c 1
 449 745 l 2
 449.037488574 747.586711603 449.056707037 750.105964333 449.056707037 752.559654894 c 0
 449.056707037 815.557655388 436.38799132 835.337397166 395 844 c 0
 393.283962651 844.34320747 391.626093878 844.507546567 390.022289993 844.507546567 c 0
 353.741377972 844.507546567 345.127918689 760.407784707 316.675176435 760.407784707 c 0
 313.403222427 760.407784707 309.868911759 761.51992836 306 764 c 0
 286.829589042 776.534499472 277.444805027 802.660147476 277.444805027 821.933954719 c 0
 277.444805027 828.800379391 278.635911485 834.797175974 281 839 c 0
 303.172763548 877.623523599 373.434346735 910.108048946 432.507313598 910.108048946 c 0
 456.024952495 910.108048946 477.76927491 904.959481645 494 893 c 0
 512.46054707 879.397491633 516.760770118 855.646751051 516.760770118 829.085527814 c 0
 516.760770118 805.917573516 513.489094674 780.611361043 513.489094674 758.036360824 c 0
 513.489094674 753.217327677 513.638179868 748.522751652 514 744 c 1
 514 377 l 1
 509 384 484 412 447 431 c 0
 424.130471391 443.314361559 356.386845665 452.533957799 322.03085127 452.533957799 c 0
 317.328067081 452.533957799 313.250874137 452.361208237 310 452 c 0xfd
EndSplineSet
Validated: 1
EndChar

StartChar: parenright
Encoding: 41 41 7
Width: 214
Flags: W
LayerCount: 2
Fore
SplineSet
0 0 m 1
 100 125 l 1
 200 -3 l 1
 100 -125 l 1
 0 0 l 1
EndSplineSet
Validated: 1
EndChar

StartChar: asterisk
Encoding: 42 42 8
Width: 242
Flags: W
LayerCount: 2
Fore
SplineSet
232 1042 m 1
 232 839 l 1
 200 857 171 862 134 862 c 0
 104 862 76 855 55 836 c 0
 30 813 22 784 22 750 c 0
 22 729 30 684 55 663 c 1
 76 647 104 638 134 638 c 0
 171 638 214 651 232 661 c 1
 232 459 l 1
 188 441 142 441 99 463 c 1
 61 484 44 514 26 551 c 0
 -8 617 1 675 1 750 c 0
 1 775 -8 882 26 948 c 1
 44 987 61 1015 99 1036 c 0
 142 1059 188 1059 232 1042 c 1
EndSplineSet
Validated: 33
EndChar

StartChar: plus
Encoding: 43 43 9
Width: 266
Flags: W
LayerCount: 2
Fore
SplineSet
0 -125 m 1
 0 80 l 1
 18 128 71 129 125 129 c 0
 171 129 216 130 250 80 c 1
 250 -125 l 1
 228 -90 175 -83 125 -80 c 1
 75 -83 20 -88 0 -125 c 1
EndSplineSet
Validated: 33
EndChar

StartChar: comma
Encoding: 44 44 10
Width: 249
Flags: W
LayerCount: 2
Fore
SplineSet
-2 -79 m 1
 -2 94 l 1
 54 97 92 111 142 92 c 0
 187 75 215 63 248 27 c 1
 248 -164 l 1
 240 -160 234 -169 226 -164 c 1
 231 -133 167 -94 133 -87 c 0
 85 -77 48 -79 -2 -79 c 1
EndSplineSet
Validated: 33
EndChar

StartChar: hyphen
Encoding: 45 45 11
Width: 486
Flags: W
LayerCount: 2
Fore
SplineSet
567 1052 m 1
 567 848 l 1
 535 865 506 871 468 871 c 0
 439 871 414 863 394 844 c 0
 368 821 364 797 364 763 c 0
 364 742 368 691 394 670 c 0
 414 653 439 644 468 644 c 0
 506 644 550 658 567 667 c 1
 567 464 l 1
 523 445 477 445 433 469 c 0
 395 489 378 519 360 556 c 1
 325 623 314 677 314 753 c 0
 314 778 325 891 360 958 c 1
 378 996 395 1025 433 1046 c 1
 477 1069 523 1069 567 1052 c 1
131 655 m 0
 90 656 50 640 19 632 c 1
 -2 629 11 823 11 823 c 2
 10 846 70 866 143 866 c 0
 215 866 274 846 274 823 c 2
 274 119 l 1
 222 119 l 1
 222 637 l 1
 200 646 172 654 131 655 c 0
EndSplineSet
Validated: 33
EndChar

StartChar: period
Encoding: 46 46 12
Width: 164
Flags: W
LayerCount: 2
Fore
SplineSet
81 -71 m 1
 17 -1 l 1
 84 66 l 1
 151 -1 l 1
 81 -71 l 1
EndSplineSet
Validated: 1
EndChar

StartChar: slash
Encoding: 47 47 13
Width: 234
Flags: W
LayerCount: 2
Fore
SplineSet
224 53 m 1
 224 53 233 -1 232 -34 c 0
 231 -75 218 -122 218 -122 c 1
 168 -134 146 -136 113 -125 c 0
 83 -115 50 -107 32 -75 c 0
 0 -18 20 53 20 129 c 0
 20 237 16 301 32 410 c 1
 32 410 52 406 68 404 c 1
 63 300 61 235 61 129 c 0
 61 74 57 46 62 -7 c 0
 66 -52 95 -54 115 -60 c 0
 137 -67 188 -72 188 -47 c 1
 190 -10 l 2
 191 10 173 38 150 46 c 1
 130 51 109 58 86 58 c 1
 85 133 l 1
 117 130 140 125 165 117 c 0
 190 109 213 71 224 53 c 1
EndSplineSet
Validated: 33
EndChar

StartChar: zero
Encoding: 48 48 14
Width: 274
Flags: W
LayerCount: 2
Fore
SplineSet
129 2 m 0
 65 2 8 51 8 115 c 0
 8 209 71 255 145 255 c 0
 213 255 259 206 259 126 c 0
 259 59 196 2 129 2 c 0
137 224 m 0
 85 224 54 188 54 123 c 0
 54 75 77 33 126 33 c 0
 193 33 214 74 214 132 c 0
 214 177 184 224 137 224 c 0
EndSplineSet
Validated: 1
EndChar

StartChar: one
Encoding: 49 49 15
Width: 198
Flags: W
LayerCount: 2
Fore
SplineSet
9 264 m 0
 39 260 56 257 88 257 c 0
 120 257 136 258 167 269 c 1
 172 269 178 266 179 260 c 0
 179 258 182 256 182 252 c 1
 177 248 167 243 160 241 c 0
 150 237 129 237 117 237 c 1
 117 24 l 1
 117 24 163 20 169 20 c 0
 184 18 190 16 202 12 c 0
 205 12 207 8 207 3 c 0
 207 -3 201 -5 196 -5 c 0
 169 -3 140 0 102 0 c 0
 65 0 33 -9 13 -12 c 1
 9 -11 4 -11 3 -5 c 0
 1 3 3 9 9 9 c 1
 24 14 79 20 79 20 c 1
 79 236 l 1
 54 234 9 237 9 237 c 2
 4 237 1 246 1 251 c 0
 1 257 4 264 9 264 c 0
EndSplineSet
Validated: 33
EndChar

StartChar: two
Encoding: 50 50 16
Width: 246
Flags: W
LayerCount: 2
Fore
SplineSet
7 229 m 1
 34 253 56 257 91 257 c 0
 143 256 191 221 191 171 c 0
 191 101 146 61 103 29 c 1
 137 29 136 29 169 31 c 1
 198 31 215 35 231 37 c 0
 235 37 243 28 243 18 c 0
 243 6 232 -1 221 -1 c 2
 10 -1 l 2
 7 -1 5 2 5 5 c 0
 5 8 7 13 10 13 c 1
 77 40 145 75 145 147 c 0
 145 189 114 233 69 233 c 0
 51 233 37 227 23 217 c 1
 17 216 10 216 8 220 c 0
 7 224 7 226 7 229 c 1
EndSplineSet
Validated: 1
EndChar

StartChar: three
Encoding: 51 51 17
Width: 212
Flags: W
LayerCount: 2
Fore
SplineSet
-12 235 m 0
 13 251 46 254 86 254 c 0
 129 254 170 244 174 214 c 1
 179 162 140 158 109 142 c 1
 152 130 193 119 196 87 c 1
 200 10 93 4 22 4 c 0
 10 4 4 7 -7 7 c 1
 -7 9 -11 9 -11 12 c 0
 -11 14 -5 20 -3 21 c 0
 9 25 15 24 27 24 c 0
 84 24 156 33 156 82 c 0
 156 113 100 134 53 132 c 1
 51 134 47 135 47 138 c 0
 47 139 49 142 53 142 c 0
 112 150 134 173 134 201 c 0
 134 222 100 233 63 233 c 0
 35 233 18 229 0 223 c 1
 -5 223 -11 229 -12 229 c 1
 -12 230 -15 234 -12 235 c 0
EndSplineSet
Validated: 33
EndChar

StartChar: four
Encoding: 52 52 18
Width: 230
Flags: W
LayerCount: 2
Fore
SplineSet
202 81 m 1
 202 -18 l 1
 202 -18 175 -6 159 -16 c 1
 159 25 165 33 165 81 c 1
 14 81 l 2
 7 81 3 85 1 90 c 0
 -1 93 0 103 4 105 c 0
 37 131 143 233 178 264 c 1
 178 264 193 279 196 279 c 0
 202 279 202 272 202 266 c 2
 202 103 l 1
 242 103 l 1
 242 81 l 1
 202 81 l 1
165 103 m 1
 165 227 l 1
 28 103 l 1
 165 103 l 1
EndSplineSet
Validated: 33
EndChar

StartChar: five
Encoding: 53 53 19
Width: 192
Flags: W
LayerCount: 2
Fore
SplineSet
18 249 m 1
 51 250 64 249 97 253 c 0
 131 257 127 251 160 254 c 1
 179 246 l 2
 182 244 179 233 176 232 c 1
 174 230 144 229 140 229 c 2
 39 226 l 1
 24 173 l 1
 53 172 62 173 87 168 c 0
 133 158 160 140 168 113 c 1
 177 76 167 42 122 10 c 0
 99 -6 93 -4 62 -6 c 1
 55 11 l 1
 64 11 90 11 100 20 c 0
 127 44 138 46 134 95 c 1
 130 126 121 137 66 150 c 0
 48 154 17 153 4 157 c 0
 -7 160 2 175 2 179 c 2
 18 249 l 1
EndSplineSet
Validated: 33
EndChar

StartChar: six
Encoding: 54 54 20
Width: 214
Flags: W
LayerCount: 2
Fore
SplineSet
185 263 m 1
 200 256 l 1
 193 244 l 1
 115 234 66 181 57 144 c 1
 107 155 l 1
 115 155 119 158 127 158 c 0
 177 158 211 126 211 88 c 0
 211 27 154 -3 94 -1 c 0
 26 1 15 78 15 97 c 0
 15 175 82 248 185 263 c 1
54 86 m 0
 54 64 70 21 120 21 c 0
 154 21 173 44 173 68 c 0
 173 116 149 131 95 131 c 0
 79 131 66 126 53 122 c 1
 53 107 54 103 54 86 c 0
EndSplineSet
Validated: 33
EndChar

StartChar: seven
Encoding: 55 55 21
Width: 256
Flags: W
LayerCount: 2
Fore
SplineSet
25 246 m 2
 194 246 l 2
 202 246 210 248 215 248 c 0
 223 248 229 258 235 258 c 1
 235 258 256 259 256 246 c 1
 197 150 65 -14 65 -14 c 1
 53 -12 l 1
 50 5 l 1
 50 5 172 147 214 216 c 1
 78 216 l 2
 64 216 53 210 41 210 c 0
 32 210 25 198 17 198 c 1
 6 196 l 1
 1 204 l 1
 1 214 6 222 6 230 c 0
 6 236 18 246 25 246 c 2
EndSplineSet
Validated: 1
EndChar

StartChar: eight
Encoding: 56 56 22
Width: 194
Flags: W
LayerCount: 2
Fore
SplineSet
88 -4 m 0
 40 -4 -3 16 -3 60 c 0
 -3 96 52 122 82 132 c 1
 79 133 l 1
 52 153 26 169 26 202 c 0
 26 242 78 260 102 260 c 0
 140 260 184 238 184 203 c 0
 184 183 159 154 116 138 c 1
 160 118 190 79 190 60 c 0
 190 16 139 -4 88 -4 c 0
50 205 m 0
 50 181 79 158 108 142 c 1
 139 154 149 175 149 197 c 0
 149 220 127 238 103 238 c 0
 71 238 50 228 50 205 c 0
148 58 m 0
 148 84 122 104 87 126 c 1
 63 118 29 97 29 65 c 0
 29 33 48 10 88 10 c 0
 141 10 148 33 148 58 c 0
EndSplineSet
Validated: 1
EndChar

StartChar: nine
Encoding: 57 57 23
Width: 202
Flags: W
LayerCount: 2
Fore
SplineSet
32 3 m 1
 17 5 l 1
 20 21 l 1
 93 36 149 78 159 114 c 1
 112 101 l 1
 90 101 l 2
 40 101 6 132 6 170 c 0
 6 230 62 258 122 258 c 0
 189 258 199 179 199 161 c 0
 199 83 133 18 32 3 c 1
162 169 m 0
 162 192 146 238 96 238 c 0
 62 238 42 213 42 189 c 0
 42 142 72 124 125 124 c 0
 141 124 145 128 159 136 c 1
 159 136 162 153 162 169 c 0
EndSplineSet
Validated: 1
EndChar

StartChar: colon
Encoding: 58 58 24
Width: 274
Flags: W
LayerCount: 2
Fore
SplineSet
0 -125 m 1
 0 125 l 1
 39 100 75 86 125 86 c 0
 175 86 211 100 250 125 c 1
 250 -125 l 1
 0 -125 l 1
EndSplineSet
Validated: 1
EndChar

StartChar: semicolon
Encoding: 59 59 25
Width: 266
Flags: W
LayerCount: 2
Fore
SplineSet
154 38 m 1
 154 134 l 1
 250 49 l 1
 250 -90 l 1
 250 -90 174 -24 174 -23 c 2
 174 -118 l 1
 174 -118 97 -52 97 -51 c 2
 97 -147 l 1
 0 -65 l 1
 0 77 l 1
 77 10 l 1
 77 105 l 1
 154 38 l 1
EndSplineSet
Validated: 1
EndChar

StartChar: less
Encoding: 60 60 26
Width: 0
Flags: W
LayerCount: 2
Fore
SplineSet
0 -100 m 1
 -250 -144 l 1
 -250 -44 l 1
 0 0 l 1
 0 -100 l 1
EndSplineSet
Validated: 1
EndChar

StartChar: equal
Encoding: 61 61 27
Width: 356
Flags: W
LayerCount: 2
Fore
SplineSet
336 448 m 1
 336 169 l 1
 296 169 l 1
 296 292 l 1
 38 292 l 1
 34 111 l 1
 0 118 l 1
 0 875 l 1
 40 875 l 1
 40 709 l 1
 296 709 l 1
 296 827 l 1
 336 827 l 1
 336 552 l 1
 40 534 l 1
 40 462 l 1
 336 448 l 1
40 357 m 1
 296 357 l 1
 296 392 l 1
 40 392 l 1
 40 357 l 1
40 608 m 1
 298 608 l 1
 298 643 l 1
 40 643 l 1
 40 608 l 1
EndSplineSet
Validated: 1
EndChar

StartChar: greater
Encoding: 62 62 28
Width: 188
Flags: W
LayerCount: 2
Fore
SplineSet
0 -177 m 1
 -177 0 l 1
 0 177 l 1
 177 0 l 1
 0 -177 l 1
EndSplineSet
Validated: 1
EndChar

StartChar: question
Encoding: 63 63 29
Width: 421
Flags: W
LayerCount: 2
Fore
SplineSet
1 698 m 1
 27 698 l 1
 35 654 44 622 73 583 c 1
 98 552 134 528 180 531 c 0
 236 534 260 566 277 600 c 1
 298 651 294 722 294 768 c 0
 294 824 292 882 261 926 c 1
 242 951 204 978 152 973 c 0
 129 971 105 964 87 948 c 0
 83 945 77 935 78 929 c 0
 81 918 98 922 105 918 c 1
 140 905 170 879 170 840 c 0
 170 793 129 767 88 767 c 0
 26 767 -3 832 6 875 c 1
 16 961 112 1005 190 1005 c 0
 243 1005 304 978 342 941 c 0
 396 889 422 833 422 760 c 0
 422 696 409 638 370 587 c 1
 334 537 264 496 201 496 c 0
 82 496 9 583 1 698 c 1
537 914 m 0
 570 914 591 887 591 860 c 0
 591 832 570 805 537 805 c 0
 502 805 482 832 482 860 c 0
 482 887 502 914 537 914 c 0
537 695 m 0
 570 695 591 668 591 641 c 0
 591 613 570 586 537 586 c 0
 502 586 482 613 482 641 c 0
 482 668 502 695 537 695 c 0
EndSplineSet
Validated: 33
EndChar

StartChar: at
Encoding: 64 64 30
Width: 180
Flags: W
LayerCount: 2
Fore
SplineSet
0 -177 m 1
 -177 0 l 1
 0 177 l 1
 177 0 l 1
 0 -177 l 1
96 -37 m 1
 -35 94 l 1
 -94 35 l 1
 37 -96 l 1
 96 -37 l 1
EndSplineSet
Validated: 1
EndChar

StartChar: A
Encoding: 65 65 31
Width: 275
Flags: W
LayerCount: 2
Fore
SplineSet
0 308 m 1
 280 414 l 1
 268 366 l 1
 20 270 l 1
 0 308 l 1
12 134 m 0
 13 187 60 230 109 246 c 0
 152 260 199 264 233 236 c 1
 199 190 l 1
 190 224 162 240 128 226 c 0
 86 208 82 181 76 135 c 0
 72 105 83 85 96 78 c 0
 113 69 125 74 151 98 c 0
 180 125 217 167 235 205 c 1
 232 175 235 163 244 135 c 1
 254 109 258 90 277 71 c 1
 247 8 l 1
 232 27 227 41 219 64 c 0
 209 93 215 85 206 117 c 1
 194 97 177 76 162 62 c 0
 132 34 131 19 68 18 c 0
 52 18 11 74 12 134 c 0
EndSplineSet
Validated: 33
EndChar

StartChar: B
Encoding: 66 66 32
Width: 302
Flags: W
LayerCount: 2
Fore
SplineSet
12 292 m 1
 292 398 l 1
 280 350 l 1
 8 246 l 1
 12 292 l 1
8 416 m 1
 288 522 l 1
 276 474 l 1
 4 370 l 1
 8 416 l 1
32 130 m 0
 33 183 72 222 121 238 c 0
 164 252 223 264 257 236 c 1
 211 182 l 1
 202 216 174 232 140 218 c 0
 98 200 94 173 88 127 c 0
 84 97 87 73 100 66 c 0
 117 57 137 66 163 90 c 0
 192 117 229 151 247 189 c 1
 244 159 259 155 268 127 c 1
 278 101 270 82 289 63 c 1
 259 0 l 1
 244 19 239 33 231 56 c 0
 221 85 227 77 218 109 c 1
 206 89 189 68 174 54 c 0
 144 26 143 11 80 10 c 0
 64 10 31 70 32 130 c 0
EndSplineSet
Validated: 33
EndChar

StartChar: C
Encoding: 67 67 33
Width: 292
Flags: W
LayerCount: 2
Fore
SplineSet
16 240 m 1
 296 346 l 1
 284 298 l 1
 12 194 l 1
 16 240 l 1
12 364 m 1
 292 470 l 1
 280 422 l 1
 8 318 l 1
 12 364 l 1
12 500 m 1
 292 606 l 1
 280 558 l 1
 8 454 l 1
 12 500 l 1
36 70 m 0
 37 123 76 162 125 178 c 0
 168 192 215 196 249 168 c 1
 215 122 l 1
 206 156 178 172 144 158 c 0
 102 140 98 113 92 67 c 0
 88 37 91 13 104 6 c 0
 121 -3 141 6 167 30 c 0
 196 57 233 99 251 137 c 1
 248 107 251 95 260 67 c 1
 270 41 274 22 293 3 c 1
 263 -60 l 1
 248 -41 243 -27 235 -4 c 0
 225 25 231 17 222 49 c 1
 210 29 193 8 178 -6 c 0
 148 -34 147 -49 84 -50 c 0
 68 -50 35 10 36 70 c 0
EndSplineSet
Validated: 33
EndChar

StartChar: D
Encoding: 68 68 34
Width: 256
Flags: W
LayerCount: 2
Fore
SplineSet
128 126 m 1
 77 126 4 126 4 156 c 0
 4 183 41 277 66 353 c 0
 77 385 84 435 96 435 c 0
 100 435 103 429 103 424 c 0
 103 381 48 231 48 194 c 0
 48 179 81 171 135 171 c 1
 151 252 169 328 180 328 c 0
 185 328 185 322 185 316 c 0
 185 304 168 238 164 171 c 1
 246 171 226 185 242 185 c 0
 246 185 247 178 247 173 c 0
 247 164 223 127 207 127 c 0
 190 127 178 126 163 126 c 1
 163 51 169 52 169 23 c 0
 169 5 124 -21 116 -21 c 0
 111 -21 107 -17 107 -11 c 0
 107 6 117 63 128 126 c 1
EndSplineSet
Validated: 1
EndChar

StartChar: E
Encoding: 69 69 35
Width: 207
Flags: W
LayerCount: 2
Fore
SplineSet
23 279 m 1
 51 345 l 2
 57 357 65 368 79 368 c 0
 115 368 160 372 191 386 c 1
 198 379 l 1
 187 357 170 342 143 334 c 1
 119 324 93 324 72 324 c 0
 64 324 59 324 54 312 c 2
 43 285 l 2
 40 275 46 269 53 268 c 0
 141 257 197 234 197 152 c 0
 197 62 110 -17 19 -46 c 1
 17 -45 12 -45 11 -42 c 0
 11 -39 12 -36 12 -34 c 1
 68 -10 152 42 152 123 c 0
 152 182 111 221 43 221 c 0
 17 221 11 247 23 279 c 1
EndSplineSet
Validated: 33
EndChar

StartChar: F
Encoding: 70 70 36
Width: 214
Flags: W
LayerCount: 2
Fore
SplineSet
9 162 m 0
 9 222 26 293 76 349 c 0
 100 375 125 393 156 393 c 0
 177 393 200 383 200 364 c 0
 200 351 179 329 176 329 c 0
 170 329 168 339 168 342 c 0
 168 349 152 363 133 363 c 0
 60 363 46 238 46 193 c 0
 46 180 47 167 50 155 c 1
 70 184 98 224 140 224 c 0
 180 224 216 180 216 134 c 0
 216 107 208 89 195 64 c 1
 175 29 143 -1 115 -1 c 0
 42 -1 9 80 9 162 c 0
188 98 m 0
 188 137 158 178 115 178 c 0
 87 178 69 160 52 137 c 1
 64 87 92 42 134 42 c 0
 163 42 188 67 188 98 c 0
EndSplineSet
Validated: 1
EndChar

StartChar: G
Encoding: 71 71 37
Width: 205
Flags: W
LayerCount: 2
Fore
SplineSet
70 373 m 0
 104 373 126 367 165 368 c 0
 181 369 193 370 209 370 c 0
 215 370 212 359 209 354 c 1
 189 299 163 239 144 189 c 0
 125 139 108 96 90 35 c 0
 88 30 96 18 87 2 c 1
 85 -5 40 -26 34 -26 c 0
 28 -26 26 -20 26 -17 c 0
 26 -15 29 -9 31 -5 c 2
 115 177 l 1
 140 235 156 268 183 325 c 1
 168 323 159 322 145 322 c 0
 119 322 105 328 80 328 c 0
 62 328 48 325 44 323 c 0
 36 318 29 304 20 304 c 0
 15 304 14 313 17 318 c 2
 41 356 l 2
 48 367 56 373 70 373 c 0
EndSplineSet
Validated: 33
EndChar

StartChar: H
Encoding: 72 72 38
Width: 180
Flags: W
LayerCount: 2
Fore
SplineSet
0 -177 m 1
 -177 0 l 1
 0 177 l 1
 177 0 l 1
 0 -177 l 1
EndSplineSet
Validated: 1
EndChar

StartChar: I
Encoding: 73 73 39
Width: 180
Flags: W
LayerCount: 2
Fore
SplineSet
0 -191 m 1
 -191 0 l 1
 0 191 l 1
 191 0 l 1
 0 -191 l 1
EndSplineSet
Validated: 1
EndChar

StartChar: J
Encoding: 74 74 40
Width: 448
Flags: W
LayerCount: 2
Fore
SplineSet
376 -2 m 0
 365 75 319 128 262 134 c 0
 195 141 153 133 100 102 c 1
 120 141 194 168 296 168 c 0
 362 168 410 108 428 60 c 0
 441 25 444 -23 426 -60 c 0
 404 -106 365 -146 365 -146 c 2
 356 -158 290 -88 285 -82 c 2
 237 -26 l 2
 234 -22 228 -16 224 -22 c 2
 188 -80 l 2
 185 -86 180 -88 176 -82 c 2
 128 -26 l 2
 125 -22 119 -16 114 -22 c 1
 78 -80 l 2
 74 -86 71 -88 65 -82 c 2
 18 -26 l 2
 15 -22 -6 -2 -6 -2 c 1
 32 54 l 2
 37 62 42 56 45 52 c 2
 93 -4 l 1
 98 -12 102 -8 107 -2 c 2
 143 54 l 1
 146 62 152 56 156 52 c 2
 203 -4 l 1
 207 -12 213 -8 216 -2 c 2
 252 54 l 2
 257 62 259 56 264 50 c 2
 366 -72 l 1
 381 -21 379 -23 376 -2 c 0
EndSplineSet
Validated: 33
EndChar

StartChar: K
Encoding: 75 75 41
Width: 448
Flags: W
LayerCount: 2
Fore
SplineSet
426 -27 m 0
 489 109 490 239 504 271 c 0
 508 282 529 281 580 322 c 1
 595 279 556 135 503 25 c 0
 458 -68 365 -146 365 -146 c 1
 354 -157 290 -88 285 -82 c 2
 237 -26 l 2
 234 -22 228 -16 224 -22 c 2
 188 -80 l 2
 185 -86 180 -88 176 -82 c 2
 128 -26 l 2
 125 -22 119 -16 114 -22 c 1
 78 -80 l 2
 74 -86 71 -88 65 -82 c 2
 18 -26 l 2
 15 -22 -6 -2 -6 -2 c 1
 32 54 l 2
 37 62 42 56 45 52 c 2
 93 -4 l 1
 98 -12 102 -8 107 -2 c 2
 143 54 l 1
 146 62 152 56 156 52 c 2
 203 -4 l 1
 207 -12 213 -8 216 -2 c 2
 252 54 l 2
 257 62 259 56 264 50 c 2
 376 -87 l 1
 406 -61 418 -45 426 -27 c 0
EndSplineSet
Validated: 33
EndChar

StartChar: L
Encoding: 76 76 42
Width: 402
Flags: W
LayerCount: 2
Fore
SplineSet
194 279 m 1
 194 498 l 1
 242 498 l 1
 242 249 l 1
 233 235 204 236 193 249 c 0
 167 280 128 274 104 257 c 0
 74 237 66 186 65 133 c 0
 64 65 105 10 168 25 c 0
 253 45 233 68 256 88 c 1
 258 59 l 1
 241 44 237 8 161 -6 c 0
 82 -21 12 42 13 134 c 0
 15 228 49 272 86 290 c 0
 125 310 174 296 194 279 c 1
65 495 m 0
 92 495 110 472 110 450 c 0
 110 427 92 404 65 404 c 0
 36 404 19 427 19 450 c 0
 19 472 36 495 65 495 c 0
349 495 m 0
 376 495 393 472 393 450 c 0
 393 427 376 404 349 404 c 0
 320 404 303 427 303 450 c 0
 303 472 320 495 349 495 c 0
EndSplineSet
Validated: 33
EndChar

StartChar: M
Encoding: 77 77 43
Width: 266
Flags: W
LayerCount: 2
Fore
SplineSet
250 117 m 1
 250 -69 l 1
 250 -69 68 -166 20 -112 c 0
 -7 -81 -2 -10 -2 -10 c 1
 0 185 l 1
 10 141 8 112 44 58 c 0
 73 14 198 55 220 117 c 1
 235 115 247 113 250 117 c 1
EndSplineSet
Validated: 33
EndChar

StartChar: P
Encoding: 80 80 44
Width: 360
Flags: W
LayerCount: 2
Fore
SplineSet
56 125 m 1
 307 125 l 1
 307 177 l 1
 360 177 l 1
 360 -177 l 1
 307 -177 l 1
 307 -125 l 1
 56 -125 l 1
 56 -177 l 1
 0 -177 l 1
 0 177 l 1
 56 177 l 1
 56 125 l 1
EndSplineSet
Validated: 1
EndChar

StartChar: Q
Encoding: 81 81 45
Width: 515
Flags: W
LayerCount: 2
Fore
SplineSet
522 351 m 1
 517 358 490 391 452 406 c 0
 423 417 339 425 310 420 c 0
 261 411 209 392 183 366 c 0
 145 328 136 287 135 244 c 0
 134 200 146 161 162 134 c 0
 192 86 249 64 296 64 c 0
 350 64 371 78 393 100 c 0
 421 128 435 195 424 248 c 0
 418 277 392 317 332 318 c 0
 293 319 259 295 258 252 c 0
 257 214 277 194 299 192 c 0
 341 188 359 210 365 243 c 1
 373 202 359 142 308 131 c 0
 284 126 261 132 232 157 c 0
 206 179 193 223 196 249 c 0
 207 349 286 375 366 370 c 0
 425 366 493 314 508 246 c 0
 522 183 505 107 479 72 c 0
 443 23 390 -6 307 -7 c 0
 181 -9 112 45 71 110 c 0
 53 138 43 194 50 252 c 0
 60 327 90 369 122 400 c 0
 161 437 216 454 267 464 c 0
 307 472 292 466 333 478 c 1
 333 478 369 520 374 552 c 0
 379 586 373 606 353 640 c 0
 333 674 315 689 269 723 c 1
 235 710 178 674 177 638 c 0
 176 600 176 590 186 558 c 0
 194 532 199 521 212 500 c 1
 140 528 l 1
 128 540 107 579 102 592 c 0
 90 623 96 645 102 668 c 0
 111 704 203 734 242 749 c 1
 232 755 l 2
 217 764 162 800 162 850 c 0
 162 910 226 959 274 961 c 0
 332 963 378 908 386 858 c 0
 391 828 364 769 307 745 c 1
 367 713 417 689 438 659 c 0
 467 618 475 566 456 538 c 0
 431 501 426 505 394 476 c 1
 522 486 l 1
 522 351 l 1
219 844 m 0
 217 809 239 788 278 763 c 1
 320 783 338 825 330 858 c 0
 322 892 309 918 275 916 c 0
 240 914 221 875 219 844 c 0
EndSplineSet
Validated: 33
EndChar

StartChar: R
Encoding: 82 82 46
Width: 420
Flags: W
LayerCount: 2
Fore
SplineSet
68 -50 m 1
 2 7 -5 64 6 104 c 0
 36 215 79 258 203 257 c 0
 318 256 389 213 414 96 c 0
 429 27 407 -19 346 -50 c 1
 372 -1 362 38 338 88 c 0
 309 147 277 176 211 177 c 0
 141 178 104 142 83 89 c 0
 63 38 53 4 68 -50 c 1
204 52 m 1
 233 57 261 34 263 4 c 0
 265 -24 244 -49 215 -51 c 0
 186 -53 161 -32 159 -3 c 0
 158 25 176 49 204 52 c 1
EndSplineSet
Validated: 33
EndChar

StartChar: S
Encoding: 83 83 47
Width: 244
Flags: W
LayerCount: 2
Fore
SplineSet
22 77 m 1
 99 0 l 1
 22 -77 l 1
 0 -54 l 1
 54 0 l 1
 0 54 l 1
 22 77 l 1
199 100 m 1
 122 23 l 1
 45 100 l 1
 68 122 l 1
 122 68 l 1
 176 122 l 1
 199 100 l 1
222 -77 m 1
 143 0 l 1
 222 77 l 1
 244 54 l 1
 190 0 l 1
 244 -54 l 1
 222 -77 l 1
45 -100 m 1
 122 -23 l 1
 199 -100 l 1
 176 -122 l 1
 122 -68 l 1
 68 -122 l 1
 45 -100 l 1
EndSplineSet
Validated: 1
EndChar

StartChar: T
Encoding: 84 84 48
Width: 421
Flags: W
LayerCount: 2
Fore
SplineSet
1 -52 m 1
 27 -52 l 1
 35 -96 44 -128 73 -167 c 1
 98 -198 134 -222 180 -219 c 0
 236 -216 260 -184 277 -150 c 1
 298 -99 294 -28 294 18 c 0
 294 74 292 132 261 176 c 1
 242 201 204 228 152 223 c 0
 129 221 105 214 87 198 c 0
 83 195 77 185 78 179 c 0
 81 168 98 172 105 168 c 1
 140 155 170 129 170 90 c 0
 170 43 129 17 88 17 c 0
 26 17 -3 82 6 125 c 1
 16 211 112 255 190 255 c 0
 243 255 304 228 342 191 c 0
 396 139 422 83 422 10 c 0
 422 -54 409 -112 370 -163 c 1
 334 -213 264 -254 201 -254 c 0
 82 -254 9 -167 1 -52 c 1
EndSplineSet
Validated: 33
EndChar

StartChar: U
Encoding: 85 85 49
Width: 185
Flags: W
LayerCount: 2
Fore
SplineSet
104 93 m 0
 152 87 182 28 179 1 c 0
 174 -44 146 -87 98 -92 c 1
 60 -97 30 -86 11 -53 c 1
 -1 -35 -1 -20 -1 1 c 2
 -1 376 l 1
 31 375 l 1
 31 66 l 1
 37 91 70 97 104 93 c 0
93 82 m 0
 54 88 40 33 42 -7 c 0
 44 -40 53 -78 86 -79 c 0
 120 -80 128 -37 131 -2 c 1
 133 34 128 76 93 82 c 0
EndSplineSet
Validated: 33
EndChar

StartChar: V
Encoding: 86 86 50
Width: 60
Flags: W
LayerCount: 2
Fore
SplineSet
31 108 m 1
 31 358 l 1
 -11 358 l 1
 -11 397 l 1
 71 397 l 1
 71 -128 l 1
 -53 -89 l 1
 -53 131 l 1
 31 108 l 1
EndSplineSet
Validated: 1
EndChar

StartChar: W
Encoding: 87 87 51
Width: 103
Flags: W
LayerCount: 2
Fore
SplineSet
0 -125 m 1
 0 94 l 1
 124 128 l 1
 124 -392 l 1
 42 -392 l 1
 42 -353 l 1
 83 -353 l 1
 83 -103 l 1
 0 -125 l 1
EndSplineSet
Validated: 1
EndChar

StartChar: X
Encoding: 88 88 52
Width: 154
Flags: W
LayerCount: 2
Fore
SplineSet
0 0 m 1
 0 139 l 1
 150 139 l 1
 150 0 l 1
 0 0 l 1
EndSplineSet
Validated: 1
EndChar

StartChar: Y
Encoding: 89 89 53
Width: 0
Flags: W
LayerCount: 2
Fore
SplineSet
-81 0 m 1
 -81 90 l 1
 -220 90 l 1
 -220 165 l 1
 0 165 l 1
 0 0 l 1
 -81 0 l 1
EndSplineSet
Validated: 1
EndChar

StartChar: Z
Encoding: 90 90 54
Width: 0
Flags: W
LayerCount: 2
Fore
SplineSet
81 0 m 1
 0 0 l 1
 0 165 l 1
 220 165 l 1
 220 90 l 1
 81 90 l 1
 81 0 l 1
EndSplineSet
Validated: 1
EndChar

StartChar: bracketleft
Encoding: 91 91 55
Width: 180
Flags: W
LayerCount: 2
Fore
SplineSet
0 -191 m 1
 -191 0 l 1
 0 191 l 1
 191 0 l 1
 0 -191 l 1
104 -40 m 1
 -38 102 l 1
 -102 38 l 1
 40 -104 l 1
 104 -40 l 1
EndSplineSet
Validated: 1
EndChar

StartChar: backslash
Encoding: 92 92 56
Width: 722
Flags: W
LayerCount: 2
Fore
SplineSet
174 279 m 1
 183 279 191 279 199 278 c 0
 206 278 213 278 220 277 c 1
 267 277 303 284 328 297 c 0
 351 310 363 337 364 379 c 0
 364 421 349 448 321 461 c 1
 303 468 269 472 219 472 c 0
 200 472 188 470 181 467 c 1
 176 463 174 454 174 440 c 2
 174 279 l 1
545 516 m 1
 519 507 491 506 475 527 c 0
 451 558 465 599 495 624 c 0
 526 650 579 657 601 622 c 0
 613 603 614 581 606 563 c 0
 606 561 606 559 605 556 c 2
 435 93 l 1
 440 89 443 86 445 82 c 0
 450 71 472 59 480 59 c 0
 491 59 516 72 516 72 c 1
 524 78 550 92 551 114 c 1
 562 111 l 1
 551 74 544 63 532 49 c 0
 519 34 489 10 449 10 c 0
 440 10 423 9 407 17 c 1
 357 -119 l 1
 299 -185 l 1
 380 45 l 1
 368 62 353 89 339 126 c 0
 326 161 317 191 299 209 c 0
 282 226 260 245 221 246 c 2
 174 247 l 1
 174 66 l 2
 174 49 176 40 183 36 c 0
 190 33 212 31 249 29 c 1
 249 0 l 1
 17 0 l 1
 17 29 l 1
 31 30 41 30 48 31 c 1
 64 31 74 32 78 34 c 1
 83 35 87 38 91 42 c 0
 94 45 97 52 97 64 c 2
 97 441 l 2
 97 449 95 456 92 462 c 0
 89 467 85 470 78 471 c 2
 53 474 l 1
 18 475 l 1
 18 505 l 1
 283 505 l 2
 321 505 354 498 384 483 c 1
 426 459 447 425 448 381 c 1
 448 333 425 298 379 277 c 0
 356 266 324 259 285 255 c 1
 307 252 324 249 338 239 c 0
 362 222 376 194 391 166 c 2
 391 166 410 131 410 130 c 2
 545 516 l 1
EndSplineSet
Validated: 33
EndChar

StartChar: bracketright
Encoding: 93 93 57
Width: 722
Flags: W
LayerCount: 2
Fore
SplineSet
157 198 m 1
 64 433 l 2
 57 453 49 465 42 469 c 0
 35 472 19 475 -6 475 c 1
 -6 505 l 1
 212 505 l 1
 212 475 l 1
 184 475 l 2
 169 475 161 474 160 474 c 0
 153 472 149 470 146 467 c 0
 143 464 141 460 141 455 c 0
 141 452 141 449 142 446 c 0
 143 443 145 438 147 431 c 2
 196 305 l 2
 197 305 275 522 275 522 c 1
 249 513 224 514 205 533 c 0
 178 561 195 605 225 630 c 0
 256 656 311 664 331 628 c 0
 342 608 337 590 331 570 c 0
 331 568 330 565 329 562 c 2
 215 256 l 1
 275 104 l 1
 382 390 l 2
 386 400 389 409 391 418 c 0
 393 426 393 432 394 437 c 1
 394 452 387 463 373 468 c 1
 365 472 348 474 323 475 c 1
 323 505 l 1
 512 505 l 1
 512 475 l 1
 491 475 477 473 468 468 c 0
 454 461 442 444 433 418 c 1
 267 -10 l 1
 241 -10 l 1
 176 151 l 1
 87 -89 l 1
 29 -155 l 1
 29 -155 158 199 157 198 c 1
EndSplineSet
Validated: 33
EndChar

StartChar: a
Encoding: 97 97 58
Width: 239
Flags: W
LayerCount: 2
Fore
SplineSet
5 65 m 0
 5 99 33 125 50 144 c 0
 72 167 105 198 149 198 c 0
 174 198 211 190 211 178 c 0
 211 165 195 159 195 146 c 2
 195 75 l 2
 195 65 195 53 204 47 c 0
 209 44 216 49 223 47 c 0
 225 47 228 44 228 42 c 0
 228 32 202 18 185 5 c 0
 179 0 175 -12 165 -12 c 0
 159 -12 154 -4 154 5 c 2
 154 60 l 1
 143 49 136 40 125 32 c 0
 103 15 87 0 61 0 c 0
 28 0 5 33 5 65 c 0
156 119 m 0
 156 130 156 145 148 155 c 0
 141 164 126 168 121 168 c 0
 82 168 47 130 47 98 c 0
 47 71 65 44 91 44 c 0
 129 44 156 77 156 119 c 0
EndSplineSet
Validated: 1
EndChar

StartChar: b
Encoding: 98 98 59
Width: 208
Flags: W
LayerCount: 2
Fore
SplineSet
67 314 m 0
 59 247 64 202 65 144 c 1
 76 155 82 165 95 175 c 1
 113 187 125 197 147 197 c 0
 180 197 201 164 201 131 c 0
 201 99 191 78 173 53 c 1
 149 22 125 -2 91 -2 c 0
 75 -2 61 1 43 1 c 0
 33 1 28 -1 17 -1 c 0
 13 -1 10 4 10 7 c 0
 10 13 15 18 15 24 c 1
 24 65 20 98 20 144 c 0
 20 213 23 335 36 383 c 1
 65 399 50 396 72 393 c 1
 66 349 72 357 67 314 c 0
119 154 m 0
 82 154 62 124 62 104 c 2
 62 67 l 2
 62 48 76 37 103 37 c 0
 144 37 170 60 170 96 c 0
 170 126 146 154 119 154 c 0
EndSplineSet
Validated: 33
EndChar

StartChar: c
Encoding: 99 99 60
Width: 200
Flags: W
LayerCount: 2
Fore
SplineSet
189 184 m 0
 190 169 162 157 151 152 c 1
 135 149 87 155 69 159 c 1
 55 151 49 138 49 124 c 0
 49 107 58 84 72 65 c 1
 85 45 100 27 116 27 c 0
 132 27 146 35 162 44 c 0
 164 44 167 44 169 43 c 0
 171 42 175 40 171 36 c 1
 162 23 125 4 108 -2 c 1
 81 -5 49 13 29 42 c 0
 13 65 9 88 15 118 c 1
 23 133 31 142 43 155 c 0
 60 174 72 184 95 195 c 1
 115 192 126 190 146 190 c 0
 148 190 189 186 189 184 c 0
EndSplineSet
Validated: 33
EndChar

StartChar: d
Encoding: 100 100 61
Width: 228
Flags: W
LayerCount: 2
Fore
SplineSet
41 53 m 1
 10 104 46 163 97 193 c 1
 97 193 45 213 -28 221 c 0
 -74 226 -72 230 -160 214 c 1
 -156 216 -173 248 -170 249 c 0
 -93 272 130 222 130 222 c 1
 193 193 229 160 229 110 c 0
 229 69 213 37 182 18 c 0
 140 -8 69 4 41 53 c 1
71 90 m 1
 92 51 149 47 187 69 c 1
 215 87 215 110 201 135 c 0
 179 173 124 183 95 168 c 1
 66 150 51 122 71 90 c 1
EndSplineSet
Validated: 33
EndChar

StartChar: e
Encoding: 101 101 62
Width: 191
Flags: W
LayerCount: 2
Fore
SplineSet
157 159 m 1
 163 156 167 158 173 159 c 1
 184 149 l 1
 49 78 l 1
 54 70 59 62 66 54 c 0
 77 42 91 31 105 31 c 0
 127 31 143 45 160 56 c 1
 160 60 165 59 168 59 c 1
 171 56 171 51 168 49 c 1
 158 36 151 28 136 20 c 1
 115 7 102 1 77 1 c 1
 28 4 0 50 0 98 c 0
 0 111 1 119 5 130 c 1
 17 149 28 160 48 175 c 1
 69 189 88 201 109 201 c 0
 135 201 152 163 157 159 c 1
73 171 m 0
 51 171 43 147 43 127 c 0
 43 115 44 104 45 93 c 1
 97 119 l 2
 107 124 114 131 114 143 c 0
 114 159 89 171 73 171 c 0
EndSplineSet
Validated: 1
EndChar

StartChar: f
Encoding: 102 102 63
Width: 184
Flags: W
LayerCount: 2
Fore
SplineSet
168 373 m 0
 201 373 215 351 215 333 c 0
 215 309 198 282 176 258 c 0
 155 234 135 219 107 208 c 1
 107 198 108 190 108 179 c 1
 171 179 l 2
 176 179 180 172 180 168 c 0
 180 164 174 154 169 154 c 2
 106 154 l 1
 106 73 111 122 103 36 c 1
 96 -16 108 38 100 -15 c 1
 94 -16 71 -6 65 -6 c 1
 65 -6 63 19 63 49 c 0
 64 153 60 53 60 154 c 1
 14 154 l 2
 10 154 5 160 5 165 c 0
 5 168 8 179 12 179 c 2
 52 179 l 1
 52 210 59 267 85 320 c 0
 98 346 128 373 168 373 c 0
118 332 m 0
 102 293 107 258 107 219 c 1
 127 230 140 243 154 263 c 1
 166 282 171 300 171 322 c 0
 171 335 165 356 155 356 c 0
 138 356 123 345 118 332 c 0
EndSplineSet
Validated: 33
EndChar

StartChar: g
Encoding: 103 103 64
Width: 258
Flags: W
LayerCount: 2
Fore
SplineSet
58 41 m 0
 82 27 126 31 152 77 c 0
 169 107 169 176 175 215 c 1
 164 206 151 198 136 189 c 0
 114 177 98 167 72 171 c 0
 39 177 24 213 30 246 c 0
 35 275 61 303 93 325 c 1
 124 344 155 356 183 351 c 0
 193 349 216 341 237 342 c 1
 245 351 207 133 207 133 c 1
 191 63 148 -2 87 4 c 0
 54 7 27 28 14 50 c 0
 6 63 -17 106 13 151 c 1
 6 106 46 48 58 41 c 0
179 238 m 1
 184 263 192 288 198 318 c 1
 186 320 175 322 166 323 c 0
 123 331 83 315 76 272 c 0
 70 241 85 210 110 205 c 0
 125 203 143 214 160 223 c 1
 167 228 173 233 179 238 c 1
EndSplineSet
Validated: 33
EndChar

StartChar: h
Encoding: 104 104 65
Width: 236
Flags: W
LayerCount: 2
Fore
SplineSet
166 -1 m 0
 148 1 169 83 151 83 c 0
 132 83 112 67 96 54 c 0
 80 40 72 23 64 12 c 1
 64 10 58 10 58 6 c 1
 55 2 49 0 43 0 c 0
 33 0 32 10 32 23 c 0
 32 47 37 64 37 88 c 0
 37 244 41 314 98 357 c 0
 140 389 154 368 119 352 c 0
 81 335 81 268 81 239 c 0
 81 183 87 141 87 76 c 1
 110 102 159 127 159 127 c 2
 166 132 175 136 179 136 c 0
 190 136 208 104 216 48 c 0
 219 28 251 15 225 -3 c 0
 208 -15 196 -5 166 -1 c 0
EndSplineSet
Validated: 33
EndChar

StartChar: i
Encoding: 105 105 66
Width: 112
Flags: W
LayerCount: 2
Fore
SplineSet
22 162 m 0
 22 165 25 171 29 174 c 2
 75 197 l 2
 78 198 82 198 84 196 c 1
 87 195 86 189 86 185 c 0
 86 147 84 118 84 87 c 0
 84 75 83 59 86 55 c 0
 89 51 95 47 95 43 c 0
 95 34 82 25 72 17 c 1
 61 10 46 0 40 0 c 0
 35 0 34 6 33 12 c 0
 32 17 35 21 37 26 c 1
 41 56 41 70 40 98 c 0
 40 115 43 126 35 141 c 1
 33 149 22 155 22 162 c 0
39 283 m 0
 39 296 52 310 66 310 c 0
 81 310 94 296 94 283 c 0
 94 268 81 256 66 256 c 0
 52 256 39 268 39 283 c 0
EndSplineSet
Validated: 33
EndChar

StartChar: j
Encoding: 106 106 67
Width: 112
Flags: W
LayerCount: 2
Fore
SplineSet
40 283 m 0
 40 296 52 310 67 310 c 0
 82 310 95 296 95 283 c 0
 95 268 82 256 67 256 c 0
 52 256 40 268 40 283 c 0
38 98 m 0
 38 115 40 126 34 141 c 0
 30 149 19 155 19 162 c 0
 19 165 23 174 27 175 c 1
 70 198 l 2
 74 201 78 200 83 196 c 0
 86 193 85 189 85 185 c 0
 84 147 82 40 82 10 c 0
 82 -18 88 -77 44 -142 c 0
 25 -169 8 -181 -19 -201 c 1
 -22 -201 -25 -198 -25 -197 c 0
 -27 -195 -28 -193 -28 -191 c 1
 -17 -180 -11 -173 -1 -160 c 0
 12 -143 21 -130 27 -107 c 1
 34 -85 38 20 38 98 c 0
EndSplineSet
Validated: 33
EndChar

StartChar: k
Encoding: 107 107 68
Width: 245
Flags: W
LayerCount: 2
Fore
SplineSet
144 383 m 1
 144 383 167 365 129 365 c 0
 102 365 83 337 79 315 c 1
 56 220 61 228 61 147 c 1
 70 158 75 167 84 175 c 0
 105 195 124 206 152 206 c 0
 175 206 200 191 200 167 c 0
 200 153 187 133 171 122 c 0
 158 113 143 104 132 103 c 0
 142 103 148 103 155 97 c 1
 164 92 176 78 186 65 c 0
 196 51 209 39 223 39 c 0
 228 39 231 42 236 44 c 1
 239 44 240 45 242 45 c 0
 245 45 245 38 245 36 c 1
 239 31 235 26 229 22 c 0
 218 13 208 6 195 6 c 0
 169 6 155 24 143 45 c 0
 132 65 130 85 109 89 c 1
 100 92 96 88 85 88 c 0
 83 88 82 94 82 97 c 0
 82 99 83 103 85 103 c 0
 89 103 93 104 96 104 c 0
 109 104 118 107 129 115 c 0
 143 124 155 135 155 151 c 0
 155 165 141 179 127 179 c 0
 86 179 59 130 59 95 c 2
 59 60 l 2
 59 53 62 47 60 39 c 1
 56 29 50 25 43 20 c 0
 33 12 22 5 15 5 c 0
 9 5 9 12 9 17 c 0
 9 26 12 33 12 42 c 1
 17 73 17 136 17 195 c 0
 17 251 22 293 64 340 c 1
 89 365 110 383 144 383 c 1
EndSplineSet
Validated: 33
EndChar

StartChar: l
Encoding: 108 108 69
Width: 156
Flags: W
LayerCount: 2
Fore
SplineSet
132 375 m 0
 169 375 180 345 180 321 c 0
 180 264 139 209 91 155 c 0
 86 150 82 144 76 141 c 1
 76 68 67 133 79 63 c 0
 80 58 98 34 104 32 c 0
 115 27 122 30 135 30 c 1
 137 28 138 25 138 23 c 0
 138 19 137 15 135 14 c 1
 114 14 99 11 78 8 c 0
 61 5 48 -2 33 -2 c 0
 29 -2 25 4 25 5 c 0
 25 15 34 29 34 45 c 0
 34 70 31 43 31 100 c 1
 18 88 6 78 -4 71 c 1
 -8 71 -14 71 -14 73 c 0
 -14 77 -15 81 -14 83 c 0
 4 98 18 110 31 122 c 1
 31 133 33 146 33 158 c 0
 33 201 38 263 67 323 c 1
 82 351 104 375 132 375 c 0
99 328 m 1
 87 293 76 236 76 177 c 2
 76 163 l 1
 79 165 82 168 85 171 c 0
 126 214 146 263 146 308 c 0
 146 328 140 354 123 354 c 0
 115 354 104 339 99 328 c 1
EndSplineSet
Validated: 33
EndChar

StartChar: m
Encoding: 109 109 70
Width: 350
Flags: W
LayerCount: 2
Fore
SplineSet
196 99 m 1
 196 94 l 1
 197 71 197 55 197 36 c 0
 197 28 164 6 154 6 c 0
 148 6 146 13 146 17 c 0
 146 26 149 32 149 40 c 1
 151 49 153 55 153 65 c 2
 153 121 l 2
 153 135 154 153 142 153 c 0
 125 153 92 127 65 105 c 1
 65 70 l 1
 65 37 l 2
 65 27 55 24 45 18 c 0
 38 13 31 6 22 6 c 0
 16 6 15 15 15 22 c 0
 15 38 22 49 22 66 c 2
 22 133 l 2
 22 148 5 159 5 169 c 0
 5 178 20 185 31 192 c 0
 42 198 51 204 59 204 c 0
 65 204 67 196 67 191 c 0
 67 175 65 157 65 136 c 2
 65 120 l 1
 82 136 96 149 121 167 c 1
 144 185 173 204 189 204 c 0
 195 204 200 198 200 193 c 0
 200 165 196 158 196 135 c 2
 196 114 l 1
 214 132 230 146 255 165 c 0
 277 181 305 204 321 204 c 0
 327 204 335 201 335 196 c 0
 335 169 329 158 329 135 c 2
 329 94 l 2
 329 83 328 75 332 65 c 0
 334 58 340 55 340 47 c 0
 340 35 293 6 285 6 c 0
 282 6 278 13 278 17 c 0
 278 26 282 32 283 40 c 0
 284 49 285 55 285 65 c 2
 285 121 l 2
 285 135 287 153 275 153 c 0
 258 153 224 125 196 99 c 1
EndSplineSet
Validated: 33
EndChar

StartChar: n
Encoding: 110 110 71
Width: 222
Flags: W
LayerCount: 2
Fore
SplineSet
69 105 m 1
 69 70 l 2
 69 55 73 45 73 33 c 0
 73 26 36 6 26 6 c 0
 21 6 18 15 18 22 c 0
 18 38 26 49 26 66 c 2
 26 133 l 2
 26 153 9 159 9 169 c 0
 9 178 24 185 35 192 c 0
 45 198 55 204 65 204 c 0
 70 204 72 196 72 191 c 0
 72 175 69 157 69 136 c 2
 69 118 l 1
 87 135 102 146 126 165 c 1
 151 182 179 204 195 204 c 0
 201 204 208 201 208 196 c 0
 208 169 203 158 203 135 c 2
 203 94 l 2
 203 83 203 75 205 65 c 1
 208 58 215 55 215 47 c 0
 215 35 165 6 160 6 c 0
 155 6 153 13 153 17 c 0
 153 26 156 32 156 40 c 0
 156 49 159 55 159 65 c 2
 159 121 l 2
 159 135 162 153 149 153 c 0
 132 153 97 127 69 105 c 1
EndSplineSet
Validated: 33
EndChar

StartChar: o
Encoding: 111 111 72
Width: 218
Flags: W
LayerCount: 2
Fore
SplineSet
152 206 m 0
 185 206 204 160 204 124 c 0
 204 64 159 0 109 0 c 0
 58 0 11 34 11 89 c 0
 11 122 27 144 45 159 c 1
 60 170 75 180 93 187 c 1
 115 197 129 206 152 206 c 0
109 17 m 0
 142 17 162 58 162 94 c 0
 162 132 143 179 114 179 c 0
 81 179 55 125 55 95 c 0
 55 58 73 17 109 17 c 0
EndSplineSet
Validated: 1
EndChar

StartChar: p
Encoding: 112 112 73
Width: 228
Flags: W
LayerCount: 2
Fore
SplineSet
39 13 m 1
 41 60 43 88 43 137 c 2
 43 150 l 1
 22 155 6 161 6 170 c 0
 6 175 28 184 43 189 c 1
 43 250 l 2
 43 262 42 272 32 280 c 1
 26 287 14 286 14 293 c 1
 16 298 l 1
 67 330 l 1
 69 330 71 333 76 333 c 0
 81 333 85 328 85 322 c 2
 85 281 l 1
 92 290 101 299 110 306 c 0
 127 320 145 333 159 333 c 0
 187 333 217 300 217 268 c 0
 217 244 208 222 192 199 c 0
 172 168 140 141 116 141 c 0
 107 141 96 142 83 142 c 1
 85 114 l 1
 85 5 l 2
 85 -30 55 9 39 13 c 1
85 264 m 1
 85 189 l 1
 93 186 103 184 119 184 c 0
 141 184 162 184 178 202 c 1
 184 212 189 219 189 231 c 0
 189 265 169 292 130 292 c 0
 113 292 98 279 85 264 c 1
EndSplineSet
Validated: 33
EndChar

StartChar: q
Encoding: 113 113 74
Width: 218
Flags: W
LayerCount: 2
Fore
SplineSet
156 -19 m 0
 149 32 159 131 159 182 c 2
 159 223 l 1
 137 198 103 160 71 160 c 0
 43 160 12 191 12 224 c 0
 12 252 37 285 66 313 c 0
 93 338 114 357 152 357 c 0
 168 357 217 351 217 335 c 0
 217 329 208 326 206 319 c 0
 199 300 198 288 198 266 c 2
 198 40 l 2
 198 19 199 7 199 -14 c 1
 173 -25 158 -34 156 -19 c 0
159 292 m 2
 159 313 148 327 127 327 c 0
 110 327 98 321 83 311 c 1
 65 296 53 275 53 261 c 0
 53 231 71 203 103 203 c 0
 121 203 159 230 159 263 c 2
 159 292 l 2
EndSplineSet
Validated: 33
EndChar

StartChar: r
Encoding: 114 114 75
Width: 195
Flags: W
LayerCount: 2
Fore
SplineSet
81 100 m 1
 81 69 l 2
 81 55 78 43 89 35 c 0
 99 28 115 28 132 28 c 1
 135 26 141 26 141 22 c 0
 141 16 136 11 131 11 c 0
 115 11 98 11 77 7 c 0
 64 5 55 0 40 0 c 0
 35 0 27 4 27 10 c 0
 27 15 31 17 33 23 c 0
 37 32 39 39 39 51 c 2
 39 103 l 2
 39 119 37 130 31 144 c 0
 27 151 20 153 20 160 c 0
 20 165 21 170 24 170 c 1
 64 195 l 1
 66 195 70 196 73 196 c 0
 81 196 83 186 83 179 c 0
 83 174 81 169 81 164 c 2
 81 124 l 1
 105 158 136 197 160 197 c 0
 179 197 196 175 196 153 c 0
 196 129 186 110 169 94 c 0
 159 84 152 80 140 75 c 1
 137 75 133 76 133 80 c 1
 131 83 132 87 135 92 c 1
 145 99 162 107 162 125 c 0
 162 136 153 149 141 149 c 0
 121 149 100 125 81 100 c 1
EndSplineSet
Validated: 33
EndChar

StartChar: s
Encoding: 115 115 76
Width: 152
Flags: W
LayerCount: 2
Fore
SplineSet
101 269 m 0
 120 269 139 257 139 239 c 1
 138 228 131 213 122 213 c 0
 111 213 105 224 105 233 c 0
 105 242 94 247 84 247 c 0
 77 247 71 242 65 237 c 0
 57 231 53 224 53 213 c 0
 53 181 86 169 108 150 c 0
 131 131 146 114 146 84 c 0
 146 53 127 27 100 6 c 0
 71 -17 33 -23 10 -23 c 1
 10 -20 7 -18 7 -16 c 0
 7 -11 8 -9 11 -5 c 1
 51 -5 101 16 101 60 c 0
 101 81 86 104 65 121 c 1
 41 142 21 158 21 190 c 0
 21 217 34 234 55 251 c 1
 71 262 87 269 101 269 c 0
EndSplineSet
Validated: 1
EndChar

StartChar: t
Encoding: 116 116 77
Width: 141
Flags: W
LayerCount: 2
Fore
SplineSet
81 169 m 1
 81 115 l 2
 81 82 80 49 98 49 c 0
 103 49 105 45 105 40 c 0
 105 37 105 32 102 32 c 1
 66 5 l 2
 62 1 59 -2 54 -2 c 0
 20 -2 38 100 38 168 c 1
 6 169 l 1
 6 173 2 174 2 176 c 0
 2 182 4 185 7 187 c 1
 42 187 l 1
 51 209 60 225 73 246 c 0
 85 267 94 278 107 296 c 0
 110 299 115 299 118 296 c 0
 120 295 121 293 121 288 c 1
 110 269 104 256 96 235 c 1
 91 219 85 200 82 187 c 1
 130 187 l 1
 130 185 135 182 135 178 c 0
 135 175 133 171 130 169 c 1
 81 169 l 1
EndSplineSet
Validated: 33
EndChar

StartChar: u
Encoding: 117 117 78
Width: 230
Flags: W
LayerCount: 2
Fore
SplineSet
158 114 m 1
 149 100 140 88 126 73 c 1
 105 47 67 10 67 10 c 2
 61 4 54 0 44 0 c 0
 25 0 18 24 18 42 c 0
 18 67 22 83 22 110 c 0
 22 121 20 127 20 138 c 0
 20 149 7 159 7 167 c 0
 7 179 22 180 32 186 c 0
 39 191 43 198 53 198 c 0
 56 198 65 196 65 196 c 1
 78 175 66 133 66 93 c 2
 66 67 l 2
 66 61 66 50 73 50 c 0
 81 50 85 53 91 58 c 1
 91 58 115 84 129 102 c 0
 142 119 152 132 162 148 c 1
 162 168 164 179 165 189 c 1
 165 189 180 193 187 193 c 0
 195 193 195 195 203 186 c 1
 208 182 198 122 198 81 c 0
 198 69 200 54 203 49 c 1
 211 40 219 40 219 34 c 0
 219 32 218 27 215 27 c 1
 175 5 l 2
 173 5 169 2 165 2 c 0
 157 2 154 9 154 20 c 0
 154 27 156 34 156 42 c 0
 156 59 157 70 157 87 c 0
 157 95 158 105 158 114 c 1
EndSplineSet
Validated: 33
EndChar

StartChar: v
Encoding: 118 118 79
Width: 252
Flags: W
LayerCount: 2
Fore
SplineSet
10 160 m 0
 10 171 13 179 22 186 c 1
 29 195 38 197 49 197 c 0
 64 197 71 196 80 186 c 0
 122 141 131 36 163 36 c 0
 169 36 180 47 186 56 c 1
 196 76 201 95 201 113 c 0
 201 136 190 165 165 165 c 0
 157 165 151 162 144 156 c 1
 136 156 l 1
 136 156 135 160 135 164 c 1
 145 176 165 198 186 198 c 0
 235 198 245 164 245 141 c 0
 245 100 225 75 196 45 c 1
 175 21 140 -4 127 -4 c 0
 107 -4 93 48 80 80 c 0
 66 114 51 156 28 156 c 0
 23 156 18 147 15 147 c 0
 10 147 10 155 10 160 c 0
EndSplineSet
Validated: 1
EndChar

StartChar: w
Encoding: 119 119 80
Width: 333
Flags: W
LayerCount: 2
Fore
SplineSet
34 228 m 1
 34 201 45 151 72 102 c 0
 83 83 105 50 116 50 c 0
 130 50 149 72 165 92 c 1
 153 122 132 159 115 159 c 0
 110 159 91 144 88 144 c 0
 85 144 82 145 82 148 c 2
 81 154 l 1
 88 167 124 193 124 193 c 2
 129 197 132 200 144 200 c 0
 185 200 218 47 257 47 c 0
 264 47 269 56 276 67 c 0
 284 82 284 95 284 113 c 0
 284 129 275 170 251 170 c 0
 241 170 236 167 228 163 c 1
 225 163 223 162 220 162 c 0
 217 162 218 168 218 171 c 1
 229 185 251 200 273 200 c 0
 313 200 326 159 326 141 c 0
 326 105 311 80 287 53 c 0
 265 28 233 0 220 0 c 0
 207 0 189 45 174 77 c 1
 165 67 159 59 148 48 c 0
 126 28 105 2 86 2 c 0
 49 2 5 118 5 201 c 0
 5 235 28 222 34 228 c 1
EndSplineSet
Validated: 1
EndChar

StartChar: x
Encoding: 120 120 81
Width: 239
Flags: W
LayerCount: 2
Fore
SplineSet
19 -4 m 0
 22 30 34 42 76 96 c 1
 58 131 l 2
 49 148 39 165 18 165 c 0
 13 165 10 164 5 164 c 0
 2 164 -4 164 -4 167 c 2
 -4 174 l 1
 12 190 39 200 51 200 c 0
 67 200 83 185 92 167 c 1
 109 137 l 1
 142 175 175 201 195 201 c 0
 207 201 223 195 223 181 c 0
 223 165 207 151 196 151 c 0
 185 151 179 158 168 158 c 0
 155 158 136 145 116 125 c 1
 156 55 l 2
 162 45 174 37 180 37 c 0
 192 37 204 42 213 47 c 0
 215 47 220 44 220 44 c 1
 220 44 223 39 223 36 c 1
 182 7 l 1
 176 4 171 2 165 2 c 0
 133 2 115 20 103 45 c 1
 83 83 l 1
 49 34 39 24 36 -3 c 1
 29 -2 18 -19 19 -4 c 0
EndSplineSet
Validated: 1
EndChar

StartChar: braceleft
Encoding: 123 123 82
Width: 208
Flags: W
LayerCount: 2
Fore
SplineSet
148 435 m 0
 176 435 206 418 206 385 c 0
 206 375 204 367 198 360 c 1
 195 354 192 347 185 347 c 0
 178 347 178 356 178 365 c 0
 178 387 162 415 136 415 c 0
 93 415 78 360 73 317 c 0
 65 250 64 202 65 144 c 1
 76 155 82 165 95 175 c 1
 113 187 125 197 147 197 c 0
 180 197 201 164 201 131 c 0
 201 99 191 78 173 53 c 1
 149 22 125 -2 91 -2 c 0
 75 -2 61 1 43 1 c 0
 33 1 28 -1 17 -1 c 0
 13 -1 10 4 10 7 c 0
 10 13 15 18 15 24 c 1
 24 65 20 98 20 144 c 0
 20 252 36 348 72 393 c 0
 89 414 115 435 148 435 c 0
119 154 m 0
 82 154 62 124 62 104 c 2
 62 67 l 2
 62 48 76 37 103 37 c 0
 144 37 170 60 170 96 c 0
 170 126 146 154 119 154 c 0
EndSplineSet
Validated: 33
EndChar

StartChar: bar
Encoding: 124 124 83
Width: 195
Flags: W
LayerCount: 2
Fore
SplineSet
141 149 m 0
 121 149 98 153 79 128 c 1
 81 69 l 2
 81 55 78 43 89 35 c 0
 99 28 129 28 146 28 c 1
 149 26 159 8 159 4 c 0
 159 -2 140 -1 135 -1 c 0
 119 -1 98 11 77 7 c 0
 64 5 55 0 40 0 c 0
 35 0 27 4 27 10 c 0
 27 15 31 17 33 23 c 0
 37 32 39 39 39 51 c 2
 39 103 l 2
 39 119 37 130 31 144 c 0
 27 151 20 153 20 160 c 0
 20 165 11 186 14 188 c 2
 50 209 l 2
 52 210 70 196 73 196 c 0
 87 196 160 197 160 197 c 2
 179 197 196 175 196 153 c 0
 196 136 110 149 141 149 c 0
EndSplineSet
Validated: 33
EndChar

StartChar: braceright
Encoding: 125 125 84
Width: 228
Flags: W
LayerCount: 2
Fore
SplineSet
41 53 m 1
 10 104 46 163 97 193 c 1
 -17 236 l 2
 -46 247 -63 259 -79 287 c 0
 -95 315 -98 336 -93 367 c 0
 -91 378 -91 384 -88 394 c 1
 -84 396 -83 398 -80 399 c 0
 -77 400 -71 396 -72 391 c 0
 -78 369 -77 356 -66 337 c 0
 -54 316 -36 304 -18 296 c 2
 154 219 l 1
 181 209 198 197 212 172 c 0
 227 146 228 123 223 95 c 1
 220 60 204 31 182 18 c 0
 139 -6 69 4 41 53 c 1
71 90 m 1
 92 51 149 47 187 69 c 1
 215 87 215 110 201 135 c 0
 179 173 124 189 95 174 c 1
 66 156 51 122 71 90 c 1
EndSplineSet
Validated: 33
EndChar

StartChar: asciitilde
Encoding: 126 126 85
Width: 225
Flags: W
LayerCount: 2
Fore
SplineSet
-215 542 m 1
 -109 475 151 229 200 175 c 0
 217 157 220 132 220 115 c 0
 220 88 214 71 198 48 c 0
 180 21 162 -4 129 -4 c 0
 71 -4 21 38 21 93 c 0
 21 153 45 216 102 216 c 1
 34 283 -110 397 -250 505 c 1
 -255 505 -246 520 -241 528 c 1
 -234 536 -224 546 -215 542 c 1
60 120 m 0
 60 94 94 44 138 44 c 0
 174 44 196 71 196 102 c 0
 196 131 147 200 107 200 c 0
 74 200 60 148 60 120 c 0
EndSplineSet
Validated: 1
EndChar

StartChar: quotesingle
Encoding: 39 39 86
Width: 257
Flags: W
LayerCount: 2
Fore
SplineSet
0 85 m 1
 23 57 89 53 137 60 c 0
 175 66 227 95 228 118 c 1
 245 115 234 116 250 117 c 1
 250 -94 l 1
 206 -113 175 -124 129 -124 c 0
 81 -124 52 -121 -2 -107 c 1
 0 85 l 1
EndSplineSet
Validated: 33
EndChar

StartChar: grave
Encoding: 96 96 87
Width: 360
Flags: W
LayerCount: 2
Fore
SplineSet
56 125 m 1
 307 125 l 1
 307 177 l 1
 360 177 l 1
 360 -177 l 1
 307 -177 l 1
 307 -125 l 1
 56 -125 l 1
 56 -177 l 1
 0 -177 l 1
 0 177 l 1
 56 177 l 1
 56 125 l 1
307 41 m 1
 56 41 l 1
 56 -41 l 1
 307 -41 l 1
 307 41 l 1
EndSplineSet
Validated: 1
EndChar

StartChar: Adieresis
Encoding: 196 196 88
Width: 258
Flags: W
LayerCount: 2
Fore
SplineSet
209 246 m 1
 206 181 207 139 204 69 c 0
 201 -3 195 -65 160 -114 c 1
 141 -143 125 -158 92 -171 c 0
 72 -178 59 -181 37 -181 c 0
 20 -181 5 -178 -11 -171 c 1
 -35 -158 -48 -141 -48 -113 c 0
 -48 -89 -35 -65 -12 -47 c 1
 5 -32 28 -24 38 -24 c 0
 45 -24 56 -27 56 -35 c 0
 56 -40 48 -42 44 -42 c 0
 21 -42 -4 -78 -4 -101 c 0
 -4 -134 12 -165 51 -165 c 0
 75 -165 88 -155 107 -141 c 1
 140 -113 158 -48 158 14 c 0
 158 63 159 104 159 144 c 1
 149 133 138 123 125 112 c 0
 105 96 91 83 65 83 c 0
 31 83 10 116 10 149 c 0
 10 179 31 211 59 238 c 1
 86 262 114 279 143 279 c 2
 165 279 l 1
 165 292 l 1
 171 302 175 312 185 318 c 0
 195 323 202 323 212 323 c 1
 212 306 209 292 209 277 c 1
 225 277 238 274 253 269 c 1
 253 265 256 260 256 255 c 0
 256 248 252 243 252 237 c 1
 238 240 224 246 209 246 c 1
159 167 m 1
 159 193 163 219 163 249 c 1
 131 249 l 2
 87 249 51 226 51 183 c 0
 51 151 71 123 96 123 c 0
 111 123 127 137 142 149 c 0
 148 155 154 161 159 167 c 1
EndSplineSet
Validated: 1
EndChar

StartChar: Aring
Encoding: 197 197 89
Width: 236
Flags: W
LayerCount: 2
Fore
SplineSet
119 352 m 0
 81 335 81 268 81 239 c 0
 81 183 84 120 84 55 c 1
 107 81 159 127 159 127 c 2
 165 133 175 136 179 136 c 0
 190 136 216 104 216 48 c 0
 216 -15 193 -80 135 -126 c 0
 94 -159 42 -175 4 -175 c 0
 -6 -175 -10 -169 -10 -158 c 0
 -10 -146 2 -145 10 -145 c 0
 22 -145 28 -151 40 -151 c 0
 70 -151 91 -137 110 -119 c 0
 148 -84 169 -27 169 38 c 0
 169 56 169 83 151 83 c 0
 132 83 118 67 102 54 c 0
 86 40 72 26 64 15 c 1
 64 13 58 10 58 6 c 1
 55 2 49 0 43 0 c 0
 33 0 32 10 32 23 c 0
 32 47 37 64 37 88 c 0
 37 244 41 314 98 357 c 0
 140 389 154 368 119 352 c 0
EndSplineSet
Validated: 1
EndChar

StartChar: Ccedilla
Encoding: 199 199 90
Width: 651
Flags: W
LayerCount: 2
Fore
SplineSet
531 182 m 1
 480 167 l 1
 333 196 l 1
 333 196 273 134 248 111 c 1
 218 86 187 45 153 28 c 0
 113 9 113 -15 70 -3 c 1
 29 7 -12 49 -9 63 c 0
 -5 80 17 89 55 108 c 0
 79 120 84 73 82 49 c 0
 74 -32 166 98 272 208 c 1
 93 230 l 1
 170 267 l 1
 292 239 l 1
 321 267 408 332 452 347 c 0
 541 378 550 365 586 352 c 1
 583 340 662 315 632 285 c 1
 614 290 574 255 574 270 c 0
 574 365 518 336 495 330 c 0
 465 322 373 249 353 227 c 1
 531 182 l 1
EndSplineSet
Validated: 33
EndChar

StartChar: Odieresis
Encoding: 214 214 91
Width: 300
Flags: W
LayerCount: 2
Fore
SplineSet
0 0 m 1
 25 0 l 1
 81 4 145 43 183 92 c 1
 217 134 237 191 239 244 c 0
 243 339 195 428 172 476 c 1
 187 482 l 1
 221 425 271 322 271 218 c 0
 271 153 242 89 201 38 c 0
 170 -1 125 -44 85 -92 c 0
 33 -155 32 -218 25 -268 c 1
 0 -268 l 1
 0 0 l 1
EndSplineSet
Validated: 33
EndChar

StartChar: Udieresis
Encoding: 220 220 92
Width: 300
Flags: HW
LayerCount: 2
Fore
SplineSet
25 -12 m 1
 81 27 182 77 221 125 c 0
 255 167 259 198 261 251 c 0
 263 299 238 375 226 388 c 1
 238 398 l 1
 262 359 283 301 283 231 c 0
 283 194 276 161 262 130 c 1
 267 110 272 89 272 60 c 0
 272 -5 254 -96 196 -168 c 0
 165 -207 125 -241 76 -284 c 0
 33 -323 27 -373 25 -384 c 1
 0 -384 l 1
 0 0 l 1
 25 -12 l 1
252 111 m 1
 243 94 232 77 219 61 c 0
 190 25 166 2 117 -41 c 0
 74 -80 27 -153 25 -225 c 1
 115 -174 183 -134 228 -36 c 0
 242 -5 251 40 252 66 c 0
 253 80 253 96 252 111 c 1
EndSplineSet
Validated: 33
EndChar

StartChar: aacute
Encoding: 225 225 93
Width: 300
Flags: HW
LayerCount: 2
Fore
SplineSet
0 0 m 1
 25 3 l 1
 131 76 l 1
 171 102 204 128 223 152 c 0
 257 194 259 223 261 276 c 0
 263 324 238 400 228 411 c 1
 240 421 l 1
 262 384 283 326 283 256 c 0
 283 211 279 181 263 151 c 1
 268 126 271 100 271 75 c 0
 271 49 266 23 258 -2 c 1
 266 -33 271 -66 271 -99 c 0
 271 -164 242 -228 201 -279 c 0
 170 -318 125 -361 76 -404 c 0
 33 -443 27 -493 25 -529 c 1
 0 -529 l 1
 0 0 l 1
244 -36 m 1
 233 -61 218 -84 201 -105 c 0
 170 -144 125 -187 76 -230 c 0
 33 -269 27 -319 25 -345 c 1
 81 -313 144 -273 183 -225 c 0
 217 -183 243 -142 245 -89 c 0
 246 -75 245 -55 244 -36 c 1
245 122 m 1
 241 117 237 111 233 106 c 0
 194 61 139 8 93 -32 c 0
 56 -64 27 -128 25 -171 c 1
 81 -139 144 -99 183 -51 c 0
 217 -9 243 32 245 85 c 0
 245 95 245 108 245 122 c 1
EndSplineSet
Validated: 33
EndChar

StartChar: agrave
Encoding: 224 224 94
Width: 300
Flags: HW
LayerCount: 2
Fore
SplineSet
25 0 m 1
 60 20 92 46 131 73 c 1
 171 99 204 125 223 149 c 0
 257 191 259 220 261 273 c 0
 263 321 238 397 228 408 c 1
 240 418 l 1
 262 381 283 323 283 253 c 0
 283 208 279 178 263 148 c 1
 268 123 271 97 271 72 c 0
 271 46 266 20 258 -5 c 1
 266 -36 271 -69 271 -102 c 0
 271 -130 266 -157 256 -184 c 1
 265 -216 271 -251 271 -286 c 0
 271 -351 242 -415 201 -466 c 0
 170 -505 125 -548 76 -591 c 0
 33 -630 27 -680 25 -716 c 1
 0 -716 l 1
 0 0 l 1
 25 0 l 1
244 -214 m 1
 232 -238 218 -261 201 -282 c 0
 170 -321 125 -364 76 -407 c 0
 33 -446 27 -496 25 -532 c 1
 81 -500 144 -460 183 -412 c 0
 217 -370 243 -329 245 -276 c 0
 246 -259 245 -235 244 -214 c 1
244 -39 m 1
 233 -64 218 -87 201 -108 c 0
 170 -147 125 -190 76 -233 c 0
 33 -272 27 -322 25 -348 c 1
 81 -316 144 -276 183 -228 c 0
 217 -186 243 -145 245 -92 c 0
 246 -78 245 -58 244 -39 c 1
245 119 m 1
 241 114 237 108 233 103 c 0
 194 58 139 5 93 -35 c 0
 56 -67 27 -131 25 -174 c 1
 81 -142 144 -102 183 -54 c 0
 217 -12 243 29 245 82 c 0
 245 92 245 105 245 119 c 1
EndSplineSet
Validated: 33
EndChar

StartChar: acircumflex
Encoding: 226 226 95
Width: 300
Flags: HW
LayerCount: 2
Fore
SplineSet
25 0 m 1
 131 73 l 1
 171 99 204 125 223 149 c 0
 257 191 259 220 261 273 c 0
 263 321 238 397 228 408 c 1
 240 418 l 1
 262 381 283 323 283 253 c 0
 283 208 279 178 263 148 c 1
 268 123 271 97 271 72 c 0
 271 46 266 20 258 -5 c 1
 266 -36 271 -69 271 -102 c 0
 271 -130 266 -157 256 -184 c 1
 265 -216 271 -251 271 -286 c 0
 271 -314 266 -341 256 -368 c 1
 265 -400 271 -435 271 -470 c 0
 271 -535 242 -599 201 -650 c 0
 170 -689 125 -732 76 -775 c 0
 33 -814 27 -864 25 -900 c 1
 0 -900 l 1
 0 0 l 1
 25 0 l 1
244 -398 m 1
 232 -422 218 -445 201 -466 c 0
 170 -505 125 -548 76 -591 c 0
 33 -630 27 -680 25 -716 c 1
 81 -684 144 -644 183 -596 c 0
 217 -554 243 -513 245 -460 c 0
 246 -443 245 -419 244 -398 c 1
244 -214 m 1
 232 -238 218 -261 201 -282 c 0
 170 -321 125 -364 76 -407 c 0
 33 -446 27 -496 25 -532 c 1
 81 -500 144 -460 183 -412 c 0
 217 -370 243 -329 245 -276 c 0
 246 -259 245 -235 244 -214 c 1
244 -39 m 1
 233 -64 218 -87 201 -108 c 0
 170 -147 125 -190 76 -233 c 0
 33 -272 27 -322 25 -348 c 1
 81 -316 144 -276 183 -228 c 0
 217 -186 243 -145 245 -92 c 0
 246 -78 245 -58 244 -39 c 1
245 119 m 1
 241 114 237 108 233 103 c 0
 194 58 139 5 93 -35 c 0
 56 -67 27 -131 25 -174 c 1
 81 -142 144 -102 183 -54 c 0
 217 -12 243 29 245 82 c 0
 245 92 245 105 245 119 c 1
EndSplineSet
Validated: 33
EndChar

StartChar: adieresis
Encoding: 228 228 96
Width: 546
Flags: W
LayerCount: 2
Fore
SplineSet
0 268 m 1
 25 268 l 1
 32 218 33 155 85 92 c 0
 125 44 170 1 201 -38 c 0
 242 -89 271 -153 271 -218 c 0
 271 -322 221 -425 187 -482 c 1
 171 -482 l 1
 195 -428 243 -339 239 -244 c 0
 237 -191 217 -134 183 -92 c 1
 145 -43 81 -4 25 0 c 1
 0 0 l 1
 0 268 l 1
EndSplineSet
Validated: 33
EndChar

StartChar: atilde
Encoding: 227 227 97
Width: 558
Flags: HW
LayerCount: 2
Fore
SplineSet
0 0 m 1
 0 397 l 1
 25 397 l 1
 27 361 33 311 76 272 c 0
 125 229 170 186 201 147 c 0
 242 96 271 32 271 -33 c 0
 271 -67 266 -100 257 -132 c 1
 274 -166 283 -202 283 -243 c 0
 283 -313 262 -371 233 -419 c 1
 217 -419 l 1
 238 -387 263 -311 261 -263 c 0
 259 -210 255 -179 221 -137 c 0
 182 -89 85 -39 27 0 c 1
 0 0 l 1
244 -108 m 1
 245 -86 246 -60 245 -43 c 0
 243 10 217 51 183 93 c 0
 144 141 81 181 25 213 c 1
 27 141 74 68 117 29 c 0
 166 -14 190 -37 219 -73 c 0
 228 -84 236 -96 244 -108 c 1
EndSplineSet
Validated: 33
EndChar

StartChar: aring
Encoding: 229 229 98
Width: 558
Flags: HW
LayerCount: 2
Fore
SplineSet
0 0 m 1
 0 178 0 355 0 532 c 1
 25 532 l 1
 27 496 33 446 76 407 c 0
 125 364 169.892569196 320.914121244 201 282 c 0
 241.858892119 230.887200237 271 167 271 102 c 0
 271 69 266 36 258 5 c 1
 266 -20 271 -46 271 -72 c 0
 271 -97 268 -123 263 -148 c 1
 279 -178 283 -208 283 -253 c 0
 283 -323 262 -381 233 -429 c 1
 217 -429 l 1
 238 -397 262.905801501 -321.003739784 261 -273 c 0
 258.896005363 -220.004128702 257 -191 223 -149 c 0
 204 -125 171 -99 131 -73 c 1
 25 0 l 1
 25 0 10 0 0 0 c 1
244 39 m 1
 245 58 246 78 245 92 c 0
 243 145 217 186 183 228 c 0
 144 276 81 316 25 348 c 1
 27 322 33 272 76 233 c 0
 125 190 169.826774423 146.86104336 201 108 c 0
 217.90605524 86.9246401813 233 64 244 39 c 1
245 -119 m 1
 245 -105 245 -92 245 -82 c 0
 243 -29 217 12 183 54 c 0
 144 102 81 142 25 174 c 1
 27 131 56.0859812628 67.099146728 93 35 c 0
 139 -5 194 -58 233 -103 c 0
 237 -108 241 -114 245 -119 c 1
EndSplineSet
EndChar

StartChar: ccedilla
Encoding: 231 231 99
Width: 558
Flags: HW
LayerCount: 2
Fore
SplineSet
0 763 m 1
 25 763 l 1
 27 727 33 677 76 638 c 0
 125 595 170 552 201 513 c 0
 242 462 271 398 271 333 c 0
 271 298 265 263 256 231 c 1
 266 204 271 177 271 149 c 0
 271 114 265 79 256 47 c 1
 266 20 271 -7 271 -35 c 0
 271 -69 266 -102 257 -134 c 1
 274 -168 283 -204 283 -245 c 0
 283 -315 262 -373 233 -421 c 1
 217 -421 l 1
 238 -389 263 -313 261 -265 c 0
 259 -212 255 -181 221 -139 c 0
 182 -91 85 -38 27 -1 c 1
 0 0 l 1
 0 763 l 1
244 -110 m 1
 245 -88 246 -62 245 -45 c 0
 243 8 217 49 183 91 c 0
 144 139 81 179 25 211 c 1
 27 139 74 66 117 27 c 0
 166 -16 190 -39 219 -75 c 0
 228 -86 236 -98 244 -110 c 1
244 77 m 1
 245 98 246 122 245 139 c 0
 243 192 217 233 183 275 c 0
 144 323 81 363 25 395 c 1
 27 359 33 309 76 270 c 0
 125 227 170 184 201 145 c 0
 218 124 232 101 244 77 c 1
244 261 m 1
 245 282 246 306 245 323 c 0
 243 376 217 417 183 459 c 0
 144 507 81 547 25 579 c 1
 27 543 33 493 76 454 c 0
 125 411 170 368 201 329 c 0
 218 308 232 285 244 261 c 1
EndSplineSet
Validated: 33
EndChar

StartChar: eacute
Encoding: 233 233 100
Width: 558
Flags: HW
LayerCount: 2
Fore
SplineSet
0 0 m 1
 0 900 l 1
 25 900 l 1
 27 864 33 814 76 775 c 0
 125 732 170 689 201 650 c 0
 242 599 271 535 271 470 c 0
 271 435 265 400 256 368 c 1
 266 341 271 314 271 286 c 0
 271 251 265 216 256 184 c 1
 266 157 271 130 271 102 c 0
 271 69 266 36 258 5 c 1
 266 -20 271 -46 271 -72 c 0
 271 -97 268 -123 263 -148 c 1
 279 -178 283 -208 283 -253 c 0
 283 -323 262 -381 233 -429 c 1
 217 -429 l 1
 238 -397 263 -321 261 -273 c 0
 259 -220 257 -191 223 -149 c 0
 204 -125 171 -99 131 -73 c 1
 92 -46 55 -18 25 0 c 1
 0 0 l 1
245 -119 m 1
 245 -105 245 -92 245 -82 c 0
 243 -29 217 12 183 54 c 0
 144 102 81 142 25 174 c 1
 27 131 56 67 93 35 c 0
 139 -5 194 -58 233 -103 c 0
 237 -108 241 -114 245 -119 c 1
244 39 m 1
 245 58 246 78 245 92 c 0
 243 145 217 186 183 228 c 0
 144 276 81 316 25 348 c 1
 27 322 33 272 76 233 c 0
 125 190 170 147 201 108 c 0
 218 87 233 64 244 39 c 1
244 214 m 1
 245 235 246 259 245 276 c 0
 243 329 217 370 183 412 c 0
 144 460 81 500 25 532 c 1
 27 496 33 446 76 407 c 0
 125 364 170 321 201 282 c 0
 218 261 232 238 244 214 c 1
244 398 m 1
 245 419 246 443 245 460 c 0
 243 513 217 554 183 596 c 0
 144 644 81 684 25 716 c 1
 27 680 33 630 76 591 c 0
 125 548 170 505 201 466 c 0
 218 445 232 422 244 398 c 1
EndSplineSet
Validated: 33
EndChar

StartChar: ecircumflex
Encoding: 234 234 101
Width: 285
Flags: W
LayerCount: 2
Fore
SplineSet
166 137 m 1
 193 96 228 52 250 26 c 2
 250 26 257 14 260 14 c 0
 267 14 274 7 282 7 c 1
 285 4 l 1
 279 -2 l 1
 265 -2 257 0 242 0 c 2
 184 0 l 1
 179 3 l 1
 179 12 195 10 195 19 c 2
 194 28 l 1
 181 44 164 69 138 107 c 1
 122 93 113 84 102 73 c 0
 83 54 61 34 61 24 c 0
 61 19 60 11 66 11 c 1
 76 7 l 1
 84 7 82 2 82 2 c 1
 76 -3 l 1
 65 -3 55 2 44 2 c 0
 31 2 21 -1 9 -1 c 1
 5 5 l 1
 11 9 l 1
 16 9 21 16 21 20 c 1
 27 30 34 35 39 43 c 0
 48 55 71 77 88 93 c 1
 102 109 110 117 123 129 c 1
 97 167 75 202 67 215 c 0
 65 219 60 230 49 236 c 0
 46 238 41 244 36 244 c 2
 29 244 l 2
 24 244 22 246 22 251 c 0
 22 253 25 258 29 258 c 0
 43 258 51 253 66 253 c 0
 81 253 92 255 103 255 c 0
 107 255 114 250 114 250 c 1
 114 250 110 244 107 244 c 0
 103 244 100 242 100 238 c 0
 100 233 106 230 106 230 c 1
 106 230 125 205 153 161 c 1
 165 171 170 176 180 187 c 0
 194 201 218 218 218 234 c 1
 218 234 219 244 211 244 c 2
 199 244 l 2
 195 244 192 246 192 250 c 0
 192 251 192 255 196 255 c 0
 205 255 209 254 218 254 c 0
 230 254 237 256 248 256 c 0
 253 256 259 255 259 251 c 0
 259 246 259 242 257 238 c 0
 232 203 196 166 166 137 c 1
EndSplineSet
Validated: 1
EndChar

StartChar: edieresis
Encoding: 235 235 102
Width: 257
Flags: W
LayerCount: 2
Fore
SplineSet
3 260 m 1
 15 265 10 266 26 266 c 0
 36 266 46 263 56 257 c 1
 66 249 75 238 80 226 c 0
 105 162 107 113 112 27 c 1
 112 27 137 33 147 46 c 1
 191 96 210 181 210 181 c 2
 220 204 216 220 206 226 c 1
 202 226 190 237 193 246 c 0
 200 267 201 266 223 266 c 0
 233 266 248 252 250 246 c 0
 255 236 252 201 246 186 c 2
 246 186 209 86 176 36 c 0
 159 10 122 1 105 0 c 0
 76 -1 74 18 74 22 c 0
 64 104 56 167 21 223 c 0
 18 227 19 238 6 238 c 2
 -4 238 l 1
 -9 242 -10 239 -10 247 c 0
 -10 252 -6 255 3 260 c 1
EndSplineSet
Validated: 33
EndChar

StartChar: iacute
Encoding: 237 237 103
Width: 455
Flags: W
LayerCount: 2
Fore
SplineSet
11 242 m 0
 41 238 58 235 90 235 c 0
 122 235 138 236 169 247 c 1
 174 247 180 244 181 238 c 0
 181 236 184 234 184 230 c 1
 179 226 169 221 162 219 c 0
 152 215 131 215 119 215 c 1
 117 24 l 1
 117 24 163 20 169 20 c 0
 184 18 190 16 202 12 c 0
 205 12 207 8 207 3 c 0
 207 -3 201 -5 196 -5 c 0
 169 -3 140 0 102 0 c 0
 65 0 33 -9 13 -12 c 1
 9 -11 4 -11 3 -5 c 0
 1 3 3 9 9 9 c 1
 24 14 79 20 79 20 c 1
 81 214 l 1
 56 212 11 215 11 215 c 2
 6 215 3 224 3 229 c 0
 3 235 6 242 11 242 c 0
225 233 m 1
 252 257 274 261 309 261 c 0
 361 260 409 225 409 175 c 0
 409 105 364 65 321 33 c 1
 355 33 354 33 387 35 c 1
 416 35 433 39 449 41 c 0
 453 41 461 32 461 22 c 0
 461 10 450 3 439 3 c 2
 228 3 l 2
 225 3 223 6 223 9 c 0
 223 12 225 17 228 17 c 1
 295 44 363 79 363 151 c 0
 363 193 332 237 287 237 c 0
 269 237 255 231 241 221 c 1
 235 220 228 220 226 224 c 0
 225 228 225 230 225 233 c 1
EndSplineSet
Validated: 33
EndChar

StartChar: igrave
Encoding: 236 236 104
Width: 412
Flags: W
LayerCount: 2
Fore
SplineSet
7 240 m 0
 37 236 54 233 86 233 c 0
 118 233 134 234 165 245 c 1
 170 245 176 242 177 236 c 0
 177 234 180 232 180 228 c 1
 175 224 165 219 158 217 c 0
 148 213 127 213 115 213 c 1
 117 24 l 1
 117 24 163 20 169 20 c 0
 192 17 206 -5 180 -5 c 1
 153 -3 140 0 102 0 c 0
 65 0 33 -9 13 -12 c 1
 9 -11 4 -11 3 -5 c 0
 1 3 3 9 9 9 c 1
 24 14 79 20 79 20 c 1
 77 212 l 1
 52 210 7 213 7 213 c 2
 2 213 -1 222 -1 227 c 0
 -1 233 2 240 7 240 c 0
204 231 m 0
 229 247 262 250 302 250 c 0
 345 250 386 240 390 210 c 1
 395 158 356 154 325 138 c 1
 368 126 409 115 412 83 c 1
 416 6 309 0 238 0 c 0
 221 0 185 20 243 20 c 0
 300 20 372 29 372 78 c 0
 372 109 316 130 269 128 c 1
 267 130 263 131 263 134 c 0
 263 135 265 138 269 138 c 0
 328 146 350 169 350 197 c 0
 350 218 316 229 279 229 c 0
 251 229 234 225 216 219 c 1
 211 219 205 225 204 225 c 1
 204 226 201 230 204 231 c 0
EndSplineSet
Validated: 33
EndChar

StartChar: icircumflex
Encoding: 238 238 105
Width: 429
Flags: W
LayerCount: 2
Fore
SplineSet
9 264 m 0
 39 260 56 257 88 257 c 0
 120 257 136 258 167 269 c 1
 172 269 178 266 179 260 c 0
 179 258 182 256 182 252 c 1
 177 248 167 243 160 241 c 0
 150 237 129 237 117 237 c 1
 117 24 l 1
 117 24 163 20 169 20 c 0
 184 18 190 16 202 12 c 0
 205 12 207 8 207 3 c 0
 207 -3 201 -5 196 -5 c 0
 169 -3 140 0 102 0 c 0
 65 0 33 -9 13 -12 c 1
 9 -11 4 -11 3 -5 c 0
 1 3 3 9 9 9 c 1
 24 14 79 20 79 20 c 1
 79 236 l 1
 54 234 9 237 9 237 c 2
 4 237 1 246 1 251 c 0
 1 257 4 264 9 264 c 0
366 85 m 1
 366 -14 l 1
 366 -14 339 -2 323 -12 c 1
 323 29 329 37 329 85 c 1
 178 85 l 2
 171 85 167 89 165 94 c 0
 163 97 164 107 168 109 c 0
 201 135 307 237 342 268 c 1
 342 268 357 283 360 283 c 0
 366 283 366 276 366 270 c 2
 366 107 l 1
 406 107 l 1
 406 85 l 1
 366 85 l 1
329 107 m 1
 329 231 l 1
 192 107 l 1
 329 107 l 1
EndSplineSet
Validated: 33
EndChar

StartChar: idieresis
Encoding: 239 239 106
Width: 0
Flags: W
LayerCount: 2
Fore
SplineSet
3 79 m 1
 0 0 l 1
 -62 -22 l 1
 -196 73 l 1
 -196 110 l 1
 0 315 l 1
 0 274 l 1
 -144 119 l 1
 -59 57 l 1
 3 79 l 1
EndSplineSet
Validated: 1
EndChar

StartChar: ntilde
Encoding: 241 241 107
Width: 0
Flags: W
LayerCount: 2
Fore
SplineSet
-141 374 m 1
 0 274 l 1
 -144 119 l 1
 -59 57 l 1
 3 79 l 1
 0 0 l 1
 -62 -22 l 1
 -196 75 l 1
 -196 110 l 1
 -65 251 l 1
 -189 339 l 1
 -141 374 l 1
EndSplineSet
Validated: 1
EndChar

StartChar: oacute
Encoding: 243 243 108
Width: 0
Flags: W
LayerCount: 2
Fore
SplineSet
0 275 m 1
 0 274 l 1
 -144 119 l 1
 -59 57 l 1
 3 79 l 1
 0 0 l 1
 -62 -22 l 1
 -196 73 l 1
 -196 110 l 1
 -57 255 l 1
 -62 253 l 1
 -196 350 l 1
 -196 385 l 1
 -65 526 l 1
 -189 614 l 1
 -141 649 l 1
 0 549 l 1
 -144 394 l 1
 -59 332 l 1
 3 354 l 1
 0 275 l 1
EndSplineSet
Validated: 1
EndChar

StartChar: ograve
Encoding: 242 242 109
Width: 0
Flags: W
LayerCount: 2
Fore
SplineSet
0 550 m 1
 0 549 l 1
 -144 394 l 1
 -59 332 l 1
 3 354 l 1
 0 275 l 1
 0 274 l 1
 -144 119 l 1
 -59 57 l 1
 3 79 l 1
 0 0 l 1
 -62 -22 l 1
 -196 73 l 1
 -196 110 l 1
 -57 255 l 1
 -62 253 l 1
 -196 348 l 1
 -196 385 l 1
 -57 530 l 1
 -62 528 l 1
 -196 625 l 1
 -196 660 l 1
 -65 801 l 1
 -189 889 l 1
 -141 924 l 1
 0 824 l 1
 -144 669 l 1
 -59 607 l 1
 3 629 l 1
 0 550 l 1
EndSplineSet
Validated: 1
EndChar

StartChar: ocircumflex
Encoding: 244 244 110
Width: 0
Flags: W
LayerCount: 2
Fore
SplineSet
0 825 m 1
 0 824 l 1
 -144 669 l 1
 -59 607 l 1
 3 629 l 1
 0 550 l 1
 0 549 l 1
 -144 394 l 1
 -59 332 l 1
 3 354 l 1
 0 275 l 1
 0 274 l 1
 -144 119 l 1
 -59 57 l 1
 3 79 l 1
 0 0 l 1
 -62 -22 l 1
 -196 73 l 1
 -196 110 l 1
 -57 255 l 1
 -62 253 l 1
 -196 348 l 1
 -196 385 l 1
 -57 530 l 1
 -62 528 l 1
 -196 623 l 1
 -196 660 l 1
 -57 805 l 1
 -62 803 l 1
 -196 900 l 1
 -196 935 l 1
 -65 1076 l 1
 -189 1164 l 1
 -141 1199 l 1
 0 1099 l 1
 -144 944 l 1
 -59 882 l 1
 3 904 l 1
 0 825 l 1
EndSplineSet
Validated: 1
EndChar

StartChar: odieresis
Encoding: 246 246 111
Width: 198
Flags: W
LayerCount: 2
Fore
SplineSet
-3 -77 m 1
 0 2 l 1
 62 24 l 1
 196 -70 l 1
 196 -108 l 1
 0 -312 l 1
 0 -272 l 1
 151 -112 l 1
 59 -55 l 1
 -3 -77 l 1
EndSplineSet
Validated: 1
EndChar

StartChar: otilde
Encoding: 245 245 112
Width: 198
Flags: W
LayerCount: 2
Fore
SplineSet
141 -374 m 1
 0 -274 l 1
 144 -119 l 1
 59 -57 l 1
 -3 -79 l 1
 0 0 l 1
 62 22 l 1
 196 -75 l 1
 196 -110 l 1
 65 -251 l 1
 189 -339 l 1
 141 -374 l 1
EndSplineSet
Validated: 1
EndChar

StartChar: uacute
Encoding: 250 250 113
Width: 198
Flags: HW
LayerCount: 2
Fore
SplineSet
0 -275 m 1
 0 -272 l 1
 151 -112 l 1
 59 -55 l 1
 -3 -77 l 1
 0 2 l 1
 62 24 l 1
 196 -70 l 1
 196 -108 l 1
 54 -255 l 1
 62 -253 l 1
 196 -350 l 1
 196 -385 l 1
 65 -526 l 1
 189 -614 l 1
 141 -649 l 1
 0 -549 l 1
 144 -394 l 1
 59 -332 l 1
 -3 -354 l 1
 0 -275 l 1
EndSplineSet
Validated: 1
EndChar

StartChar: ugrave
Encoding: 249 249 114
Width: 198
Flags: HW
LayerCount: 2
Fore
SplineSet
0 -550 m 1
 0 -547 l 1
 151 -387 l 1
 59 -330 l 1
 -3 -352 l 1
 0 -273 l 1
 0 -272 l 1
 151 -112 l 1
 59 -55 l 1
 -3 -77 l 1
 0 2 l 1
 62 24 l 1
 196 -70 l 1
 196 -108 l 1
 57 -253 l 1
 62 -251 l 1
 196 -345 l 1
 196 -383 l 1
 54 -530 l 1
 62 -528 l 1
 196 -625 l 1
 196 -660 l 1
 65 -801 l 1
 189 -889 l 1
 141 -924 l 1
 0 -824 l 1
 144 -669 l 1
 59 -607 l 1
 -3 -629 l 1
 0 -550 l 1
EndSplineSet
Validated: 1
EndChar

StartChar: ucircumflex
Encoding: 251 251 115
Width: 198
Flags: HW
LayerCount: 2
Fore
SplineSet
0 -825 m 1
 0 -822 l 1
 151 -662 l 1
 59 -605 l 1
 -3 -627 l 1
 0 -548 l 1
 0 -547 l 1
 151 -387 l 1
 59 -330 l 1
 -3 -352 l 1
 0 -273 l 1
 0 -272 l 1
 151 -112 l 1
 59 -55 l 1
 -3 -77 l 1
 0 2 l 1
 62 24 l 1
 196 -70 l 1
 196 -108 l 1
 57 -253 l 1
 62 -251 l 1
 196 -345 l 1
 196 -383 l 1
 57 -528 l 1
 62 -526 l 1
 196 -620 l 1
 196 -658 l 1
 54 -805 l 1
 62 -803 l 1
 196 -900 l 1
 196 -935 l 1
 65 -1076 l 1
 189 -1164 l 1
 141 -1199 l 1
 0 -1099 l 1
 144 -944 l 1
 59 -882 l 1
 -3 -904 l 1
 0 -825 l 1
EndSplineSet
Validated: 1
EndChar

StartChar: Acircumflex
Encoding: 194 194 116
Width: 249
Flags: W
LayerCount: 2
Fore
SplineSet
216 -103 m 0
 171 -66 -2 -64 -2 -64 c 1
 0 0 l 1
 0 0 204 -7 246 -39 c 0
 267 -55 264 -132 264 -171 c 1
 256 -173 264 -174 245 -171 c 1
 246 -147 231 -115 216 -103 c 0
EndSplineSet
Validated: 33
EndChar

StartChar: Ecircumflex
Encoding: 202 202 117
Width: 249
Flags: W
LayerCount: 2
Fore
SplineSet
245 -166 m 1
 244 -143 230 -114 216 -103 c 0
 171 -66 -2 -64 -2 -64 c 1
 0 0 l 1
 0 0 204 -7 246 -39 c 0
 267 -55 264 -132 264 -171 c 1
 263 -180 264 -217 264 -299 c 1
 256 -301 264 -302 245 -299 c 1
 246 -275 231 -243 216 -231 c 0
 171 -194 -2 -192 -2 -192 c 1
 0 -128 l 1
 0 -128 201 -135 245 -166 c 1
EndSplineSet
Validated: 33
EndChar

StartChar: Aacute
Encoding: 193 193 118
Width: 249
Flags: W
LayerCount: 2
Fore
SplineSet
253 -172 m 1
 266 -198 264 -262 264 -296 c 1
 263 -305 264 -342 264 -424 c 1
 256 -426 264 -427 245 -424 c 1
 246 -400 231 -368 216 -356 c 0
 171 -319 -2 -317 -2 -317 c 1
 0 -253 l 1
 0 -253 201 -260 245 -291 c 1
 244 -268 230 -239 216 -228 c 0
 171 -191 -2 -189 -2 -189 c 1
 0 -125 l 1
 0 -125 200 -132 245 -163 c 1
 243 -141 229 -114 216 -103 c 0
 171 -66 -2 -64 -2 -64 c 1
 0 0 l 1
 0 0 204 -7 246 -39 c 0
 267 -55 264 -132 264 -171 c 1
 257 -173 262 -174 253 -172 c 1
EndSplineSet
Validated: 33
EndChar

StartChar: Edieresis
Encoding: 203 203 119
Width: 249
Flags: W
LayerCount: 2
Fore
SplineSet
254 -300 m 1
 266 -328 264 -388 264 -421 c 1
 263 -430 264 -467 264 -549 c 1
 256 -551 264 -552 245 -549 c 1
 246 -525 231 -493 216 -481 c 0
 171 -444 -2 -442 -2 -442 c 1
 0 -378 l 1
 0 -378 201 -385 245 -416 c 1
 244 -393 230 -364 216 -353 c 0
 171 -316 -2 -314 -2 -314 c 1
 0 -250 l 1
 0 -250 199 -257 244 -288 c 1
 242 -266 229 -241 216 -231 c 0
 171 -194 -2 -192 -2 -192 c 1
 0 -128 l 1
 0 -128 201 -135 245 -166 c 1
 244 -143 230 -114 216 -103 c 0
 171 -66 -2 -64 -2 -64 c 1
 0 0 l 1
 0 0 204 -7 246 -39 c 0
 267 -55 264 -132 264 -171 c 1
 263 -180 264 -217 264 -299 c 1
 258 -301 261 -302 254 -300 c 1
EndSplineSet
Validated: 33
EndChar

StartChar: Egrave
Encoding: 200 200 120
Width: 249
Flags: W
LayerCount: 2
Fore
SplineSet
253 -422 m 1
 266 -448 264 -512 264 -546 c 1
 263 -555 264 -592 264 -674 c 1
 256 -676 264 -677 245 -674 c 1
 246 -650 231 -618 216 -606 c 0
 171 -569 -2 -567 -2 -567 c 1
 0 -503 l 1
 0 -503 201 -510 245 -541 c 1
 244 -518 230 -489 216 -478 c 0
 171 -441 -2 -439 -2 -439 c 1
 0 -375 l 1
 0 -375 200 -382 245 -413 c 1
 243 -391 229 -364 216 -353 c 0
 171 -316 -2 -314 -2 -314 c 1
 0 -250 l 1
 0 -250 199 -257 244 -288 c 1
 242 -266 229 -241 216 -231 c 0
 171 -194 -2 -192 -2 -192 c 1
 0 -128 l 1
 0 -128 201 -135 245 -166 c 1
 244 -143 230 -114 216 -103 c 0
 171 -66 -2 -64 -2 -64 c 1
 0 0 l 1
 0 0 204 -7 246 -39 c 0
 267 -55 264 -132 264 -171 c 1
 263 -180 264 -217 264 -299 c 1
 258 -301 261 -302 254 -300 c 1
 266 -328 264 -388 264 -421 c 1
 257 -423 262 -424 253 -422 c 1
EndSplineSet
Validated: 33
EndChar

StartChar: Iacute
Encoding: 205 205 121
Width: 249
Flags: W
LayerCount: 2
Fore
SplineSet
254 -550 m 1
 266 -578 264 -638 264 -671 c 1
 263 -680 264 -717 264 -799 c 1
 256 -801 264 -802 245 -799 c 1
 246 -775 231 -743 216 -731 c 0
 171 -694 -2 -692 -2 -692 c 1
 0 -628 l 1
 0 -628 201 -635 245 -666 c 1
 244 -643 230 -614 216 -603 c 0
 171 -566 -2 -564 -2 -564 c 1
 0 -500 l 1
 0 -500 199 -507 244 -538 c 1
 242 -516 229 -491 216 -481 c 0
 171 -444 -2 -442 -2 -442 c 1
 0 -378 l 1
 0 -378 201 -385 245 -416 c 1
 244 -393 230 -364 216 -353 c 0
 171 -316 -2 -314 -2 -314 c 1
 0 -250 l 1
 0 -250 199 -257 244 -288 c 1
 242 -266 229 -241 216 -231 c 0
 171 -194 -2 -192 -2 -192 c 1
 0 -128 l 1
 0 -128 201 -135 245 -166 c 1
 244 -143 230 -114 216 -103 c 0
 171 -66 -2 -64 -2 -64 c 1
 0 0 l 1
 0 0 204 -7 246 -39 c 0
 267 -55 264 -132 264 -171 c 1
 263 -180 264 -217 264 -299 c 1
 258 -301 261 -302 254 -300 c 1
 266 -328 264 -388 264 -421 c 1
 263 -430 264 -467 264 -549 c 1
 258 -551 261 -552 254 -550 c 1
EndSplineSet
Validated: 33
EndChar

StartChar: Icircumflex
Encoding: 206 206 122
Width: 249
Flags: W
LayerCount: 2
Fore
SplineSet
253 -172 m 1
 266 -198 264 -262 264 -296 c 1
 263 -305 264 -342 264 -424 c 1
 258 -426 261 -427 254 -425 c 1
 266 -453 264 -513 264 -546 c 1
 263 -555 264 -592 264 -674 c 1
 258 -676 261 -677 254 -675 c 1
 266 -703 264 -763 264 -796 c 1
 263 -805 264 -842 264 -924 c 1
 256 -926 264 -927 245 -924 c 1
 246 -900 231 -868 216 -856 c 0
 171 -819 -2 -817 -2 -817 c 1
 0 -753 l 1
 0 -753 201 -760 245 -791 c 1
 244 -768 230 -739 216 -728 c 0
 171 -691 -2 -689 -2 -689 c 1
 0 -625 l 1
 0 -625 199 -632 244 -663 c 1
 242 -641 229 -616 216 -606 c 0
 171 -569 -2 -567 -2 -567 c 1
 0 -503 l 1
 0 -503 201 -510 245 -541 c 1
 244 -518 230 -489 216 -478 c 0
 171 -441 -2 -439 -2 -439 c 1
 0 -375 l 1
 0 -375 199 -382 244 -413 c 1
 242 -391 229 -366 216 -356 c 0
 171 -319 -2 -317 -2 -317 c 1
 0 -253 l 1
 0 -253 201 -260 245 -291 c 1
 244 -268 230 -239 216 -228 c 0
 171 -191 -2 -189 -2 -189 c 1
 0 -125 l 1
 0 -125 200 -132 245 -163 c 1
 243 -141 229 -114 216 -103 c 0
 171 -66 -2 -64 -2 -64 c 1
 0 0 l 1
 0 0 204 -7 246 -39 c 0
 267 -55 264 -132 264 -171 c 1
 257 -173 262 -174 253 -172 c 1
EndSplineSet
Validated: 33
EndChar

StartChar: Idieresis
Encoding: 207 207 123
Width: 249
Flags: W
LayerCount: 2
Fore
SplineSet
0 -65 m 1
 0 -1 l 1
 250 -90 l 1
 250 -148 l 1
 0 -65 l 1
EndSplineSet
Validated: 1
EndChar

StartChar: Igrave
Encoding: 204 204 124
Width: 249
Flags: W
LayerCount: 2
Fore
SplineSet
0 -65 m 1
 0 -1 l 1
 250 -90 l 1
 250 -148 l 1
 0 -65 l 1
0 -189 m 1
 0 -125 l 1
 250 -214 l 1
 250 -272 l 1
 0 -189 l 1
EndSplineSet
Validated: 1
EndChar

StartChar: Oacute
Encoding: 211 211 125
Width: 249
Flags: W
LayerCount: 2
Fore
SplineSet
0 -190 m 1
 0 -126 l 1
 250 -215 l 1
 250 -273 l 1
 0 -190 l 1
0 -314 m 1
 0 -250 l 1
 250 -339 l 1
 250 -397 l 1
 0 -314 l 1
0 -65 m 1
 0 -1 l 1
 250 -90 l 1
 250 -148 l 1
 0 -65 l 1
EndSplineSet
Validated: 1
EndChar

StartChar: Ocircumflex
Encoding: 212 212 126
Width: 249
Flags: W
LayerCount: 2
Fore
SplineSet
0 -315 m 1
 0 -251 l 1
 250 -340 l 1
 250 -398 l 1
 0 -315 l 1
0 -439 m 1
 0 -375 l 1
 250 -464 l 1
 250 -522 l 1
 0 -439 l 1
0 -65 m 1
 0 -1 l 1
 250 -90 l 1
 250 -148 l 1
 0 -65 l 1
0 -189 m 1
 0 -125 l 1
 250 -214 l 1
 250 -272 l 1
 0 -189 l 1
EndSplineSet
Validated: 1
EndChar

StartChar: Ograve
Encoding: 210 210 127
Width: 249
Flags: W
LayerCount: 2
Fore
SplineSet
0 -440 m 1
 0 -376 l 1
 250 -465 l 1
 250 -523 l 1
 0 -440 l 1
0 -564 m 1
 0 -500 l 1
 250 -589 l 1
 250 -647 l 1
 0 -564 l 1
0 -190 m 1
 0 -126 l 1
 250 -215 l 1
 250 -273 l 1
 0 -190 l 1
0 -314 m 1
 0 -250 l 1
 250 -339 l 1
 250 -397 l 1
 0 -314 l 1
0 -65 m 1
 0 -1 l 1
 250 -90 l 1
 250 -148 l 1
 0 -65 l 1
EndSplineSet
Validated: 1
EndChar

StartChar: Uacute
Encoding: 218 218 128
Width: 249
Flags: W
LayerCount: 2
Fore
SplineSet
0 -565 m 1
 0 -501 l 1
 250 -590 l 1
 250 -648 l 1
 0 -565 l 1
0 -689 m 1
 0 -625 l 1
 250 -714 l 1
 250 -772 l 1
 0 -689 l 1
0 -315 m 1
 0 -251 l 1
 250 -340 l 1
 250 -398 l 1
 0 -315 l 1
0 -439 m 1
 0 -375 l 1
 250 -464 l 1
 250 -522 l 1
 0 -439 l 1
0 -65 m 1
 0 -1 l 1
 250 -90 l 1
 250 -148 l 1
 0 -65 l 1
0 -189 m 1
 0 -125 l 1
 250 -214 l 1
 250 -272 l 1
 0 -189 l 1
EndSplineSet
Validated: 1
EndChar

StartChar: Ucircumflex
Encoding: 219 219 129
Width: 249
Flags: W
LayerCount: 2
Fore
SplineSet
0 -690 m 1
 0 -626 l 1
 250 -715 l 1
 250 -773 l 1
 0 -690 l 1
0 -814 m 1
 0 -750 l 1
 250 -839 l 1
 250 -897 l 1
 0 -814 l 1
0 -440 m 1
 0 -376 l 1
 250 -465 l 1
 250 -523 l 1
 0 -440 l 1
0 -564 m 1
 0 -500 l 1
 250 -589 l 1
 250 -647 l 1
 0 -564 l 1
0 -190 m 1
 0 -126 l 1
 250 -215 l 1
 250 -273 l 1
 0 -190 l 1
0 -314 m 1
 0 -250 l 1
 250 -339 l 1
 250 -397 l 1
 0 -314 l 1
0 -65 m 1
 0 -1 l 1
 250 -90 l 1
 250 -148 l 1
 0 -65 l 1
EndSplineSet
Validated: 1
EndChar
